%TF.GenerationSoftware,KiCad,Pcbnew,8.0.8*%
%TF.CreationDate,2025-04-17T23:47:09-06:00*%
%TF.ProjectId,Coquirana1,436f7175-6972-4616-9e61-312e6b696361,rev?*%
%TF.SameCoordinates,Original*%
%TF.FileFunction,Copper,L1,Top*%
%TF.FilePolarity,Positive*%
%FSLAX46Y46*%
G04 Gerber Fmt 4.6, Leading zero omitted, Abs format (unit mm)*
G04 Created by KiCad (PCBNEW 8.0.8) date 2025-04-17 23:47:09*
%MOMM*%
%LPD*%
G01*
G04 APERTURE LIST*
%TA.AperFunction,ComponentPad*%
%ADD10C,1.600000*%
%TD*%
%TA.AperFunction,ComponentPad*%
%ADD11O,1.600000X1.600000*%
%TD*%
%TA.AperFunction,ComponentPad*%
%ADD12C,1.498000*%
%TD*%
%TA.AperFunction,ComponentPad*%
%ADD13R,1.498000X1.498000*%
%TD*%
%TA.AperFunction,ComponentPad*%
%ADD14R,1.700000X1.700000*%
%TD*%
%TA.AperFunction,ComponentPad*%
%ADD15O,1.700000X1.700000*%
%TD*%
%TA.AperFunction,ComponentPad*%
%ADD16R,1.600000X1.600000*%
%TD*%
%TA.AperFunction,ComponentPad*%
%ADD17R,1.800000X1.800000*%
%TD*%
%TA.AperFunction,ComponentPad*%
%ADD18C,1.800000*%
%TD*%
%TA.AperFunction,ComponentPad*%
%ADD19C,4.000000*%
%TD*%
%TA.AperFunction,ComponentPad*%
%ADD20R,1.980000X3.960000*%
%TD*%
%TA.AperFunction,ComponentPad*%
%ADD21O,1.980000X3.960000*%
%TD*%
%TA.AperFunction,ComponentPad*%
%ADD22C,2.700000*%
%TD*%
%TA.AperFunction,Conductor*%
%ADD23C,1.000000*%
%TD*%
G04 APERTURE END LIST*
D10*
%TO.P,R5.1k,1*%
%TO.N,pin38*%
X166100000Y-113190000D03*
D11*
%TO.P,R5.1k,2*%
%TO.N,VCC*%
X166100000Y-120810000D03*
%TD*%
D12*
%TO.P,Boot,4*%
%TO.N,pin38*%
X136135000Y-57650000D03*
%TO.P,Boot,3*%
X129635000Y-57650000D03*
%TO.P,Boot,2*%
%TO.N,Earth*%
X136135000Y-53150000D03*
D13*
%TO.P,Boot,1*%
X129635000Y-53150000D03*
%TD*%
%TO.P,Reset,1*%
%TO.N,Net-(U1-Vpp{slash}~{MCLR}{slash}RE3)*%
X120950000Y-57700000D03*
D12*
%TO.P,Reset,2*%
X114450000Y-57700000D03*
%TO.P,Reset,3*%
%TO.N,Earth*%
X120950000Y-53200000D03*
%TO.P,Reset,4*%
X114450000Y-53200000D03*
%TD*%
D10*
%TO.P,R5.1k,1*%
%TO.N,Net-(U1-Vpp{slash}~{MCLR}{slash}RE3)*%
X160450000Y-57910000D03*
D11*
%TO.P,R5.1k,2*%
%TO.N,VCC*%
X160450000Y-50290000D03*
%TD*%
D14*
%TO.P,J3,1,Pin_1*%
%TO.N,pin2*%
X123800000Y-65210000D03*
D15*
%TO.P,J3,2,Pin_2*%
%TO.N,pin3*%
X123800000Y-67750000D03*
%TO.P,J3,3,Pin_3*%
%TO.N,pin4*%
X123800000Y-70290000D03*
%TO.P,J3,4,Pin_4*%
%TO.N,pin5*%
X123800000Y-72830000D03*
%TO.P,J3,5,Pin_5*%
%TO.N,pin7*%
X123800000Y-75370000D03*
%TO.P,J3,6,Pin_6*%
%TO.N,pin8*%
X123800000Y-77910000D03*
%TO.P,J3,7,Pin_7*%
%TO.N,pin9*%
X123800000Y-80450000D03*
%TO.P,J3,8,Pin_8*%
%TO.N,pin10*%
X123800000Y-82990000D03*
%TO.P,J3,9,Pin_9*%
%TO.N,pin15*%
X123800000Y-85530000D03*
%TO.P,J3,10,Pin_10*%
%TO.N,pin16*%
X123800000Y-88070000D03*
%TO.P,J3,11,Pin_11*%
%TO.N,pin17*%
X123800000Y-90610000D03*
%TO.P,J3,12,Pin_12*%
%TO.N,pin20*%
X123800000Y-93150000D03*
%TO.P,J3,13,Pin_13*%
%TO.N,pin19*%
X123800000Y-95690000D03*
%TD*%
D14*
%TO.P,VCC,1,Pin_1*%
%TO.N,VCC*%
X109300000Y-65050000D03*
D15*
%TO.P,VCC,2,Pin_2*%
X109300000Y-67590000D03*
%TO.P,VCC,3,Pin_3*%
X109300000Y-70130000D03*
%TO.P,VCC,4,Pin_4*%
X109300000Y-72670000D03*
%TO.P,VCC,5,Pin_5*%
X109300000Y-75210000D03*
%TO.P,VCC,6,Pin_6*%
X109300000Y-77750000D03*
%TO.P,VCC,7,Pin_7*%
X109300000Y-80290000D03*
%TO.P,VCC,8,Pin_8*%
X109300000Y-82830000D03*
%TO.P,VCC,9,Pin_9*%
X109300000Y-85370000D03*
%TO.P,VCC,10,Pin_10*%
X109300000Y-87910000D03*
%TO.P,VCC,11,Pin_11*%
X109300000Y-90450000D03*
%TO.P,VCC,12,Pin_12*%
X109300000Y-92990000D03*
%TO.P,VCC,13,Pin_13*%
X109300000Y-95530000D03*
%TD*%
D10*
%TO.P,15pF,1*%
%TO.N,Earth*%
X130400000Y-102850000D03*
%TO.P,15pF,2*%
%TO.N,Net-(U1-OSC1{slash}CLKI)*%
X132900000Y-102850000D03*
%TD*%
D14*
%TO.P,VCC,1,Pin_1*%
%TO.N,VCC*%
X184000000Y-65120000D03*
D15*
%TO.P,VCC,2,Pin_2*%
X184000000Y-67660000D03*
%TO.P,VCC,3,Pin_3*%
X184000000Y-70200000D03*
%TO.P,VCC,4,Pin_4*%
X184000000Y-72740000D03*
%TO.P,VCC,5,Pin_5*%
X184000000Y-75280000D03*
%TO.P,VCC,6,Pin_6*%
X184000000Y-77820000D03*
%TO.P,VCC,7,Pin_7*%
X184000000Y-80360000D03*
%TO.P,VCC,8,Pin_8*%
X184000000Y-82900000D03*
%TO.P,VCC,9,Pin_9*%
X184000000Y-85440000D03*
%TO.P,VCC,10,Pin_10*%
X184000000Y-87980000D03*
%TO.P,VCC,11,Pin_11*%
X184000000Y-90520000D03*
%TO.P,VCC,12,Pin_12*%
X184000000Y-93060000D03*
%TO.P,VCC,13,Pin_13*%
X184000000Y-95600000D03*
%TO.P,VCC,14,Pin_14*%
X184000000Y-98140000D03*
%TO.P,VCC,15,Pin_15*%
X184000000Y-100680000D03*
%TO.P,VCC,16,Pin_16*%
X184000000Y-103220000D03*
%TD*%
D16*
%TO.P,C220nF,1*%
%TO.N,Net-(U1-VUSB)*%
X129982380Y-124550000D03*
D10*
%TO.P,C220nF,2*%
%TO.N,Earth*%
X127482380Y-124550000D03*
%TD*%
D16*
%TO.P,PIC18F4550,1,Vpp/~{MCLR}/RE3*%
%TO.N,Net-(U1-Vpp{slash}~{MCLR}{slash}RE3)*%
X141760000Y-64950000D03*
D11*
%TO.P,PIC18F4550,2,RA0/AN0*%
%TO.N,pin2*%
X141760000Y-67490000D03*
%TO.P,PIC18F4550,3,RA1/AN1*%
%TO.N,pin3*%
X141760000Y-70030000D03*
%TO.P,PIC18F4550,4,RA2/AN2/Vref-/CVref*%
%TO.N,pin4*%
X141760000Y-72570000D03*
%TO.P,PIC18F4550,5,RA3/AN3/Vref+*%
%TO.N,pin5*%
X141760000Y-75110000D03*
%TO.P,PIC18F4550,6,RA4/T0CKI/C1OUT/RCV*%
%TO.N,Net-(U1-RA4{slash}T0CKI{slash}C1OUT{slash}RCV)*%
X141760000Y-77650000D03*
%TO.P,PIC18F4550,7,RA5/AN4/~{SS}/HLVDIN/C2OUT*%
%TO.N,pin7*%
X141760000Y-80190000D03*
%TO.P,PIC18F4550,8,CK1SPP/AN5/RE0*%
%TO.N,pin8*%
X141760000Y-82730000D03*
%TO.P,PIC18F4550,9,CK2SPP/AN6/RE1*%
%TO.N,pin9*%
X141760000Y-85270000D03*
%TO.P,PIC18F4550,10,OESPP/AN7/RE2*%
%TO.N,pin10*%
X141760000Y-87810000D03*
%TO.P,PIC18F4550,11,VDD*%
%TO.N,VCC*%
X141760000Y-90350000D03*
%TO.P,PIC18F4550,12,VSS*%
%TO.N,Earth*%
X141760000Y-92890000D03*
%TO.P,PIC18F4550,13,OSC1/CLKI*%
%TO.N,Net-(U1-OSC1{slash}CLKI)*%
X141760000Y-95430000D03*
%TO.P,PIC18F4550,14,RA6/OSC2/CLKO*%
%TO.N,Net-(U1-RA6{slash}OSC2{slash}CLKO)*%
X141760000Y-97970000D03*
%TO.P,PIC18F4550,15,T1OSO/T13CKI/RC0*%
%TO.N,pin15*%
X141760000Y-100510000D03*
%TO.P,PIC18F4550,16,~{UOE}/CCP2/T1OSI/RC1*%
%TO.N,pin16*%
X141760000Y-103050000D03*
%TO.P,PIC18F4550,17,P1A/CCP1/RC2*%
%TO.N,pin17*%
X141760000Y-105590000D03*
%TO.P,PIC18F4550,18,VUSB*%
%TO.N,Net-(U1-VUSB)*%
X141760000Y-108130000D03*
%TO.P,PIC18F4550,19,SPP0/RD0*%
%TO.N,pin19*%
X141760000Y-110670000D03*
%TO.P,PIC18F4550,20,SPP1/RD1*%
%TO.N,pin20*%
X141760000Y-113210000D03*
%TO.P,PIC18F4550,21,SPP2/RD2*%
%TO.N,pin21*%
X157000000Y-113210000D03*
%TO.P,PIC18F4550,22,SPP3/RD3*%
%TO.N,pin22*%
X157000000Y-110670000D03*
%TO.P,PIC18F4550,23,VM/D-/RC4*%
%TO.N,Net-(J1-D-)*%
X157000000Y-108130000D03*
%TO.P,PIC18F4550,24,VP/D+/RC5*%
%TO.N,Net-(J1-D+)*%
X157000000Y-105590000D03*
%TO.P,PIC18F4550,25,TX/CK/RC6*%
%TO.N,pin25*%
X157000000Y-103050000D03*
%TO.P,PIC18F4550,26,SDO/RX/DT/RC7*%
%TO.N,pin26*%
X157000000Y-100510000D03*
%TO.P,PIC18F4550,27,SPP4/RD4*%
%TO.N,pin27*%
X157000000Y-97970000D03*
%TO.P,PIC18F4550,28,P1B/SPP5/RD5*%
%TO.N,pin28*%
X157000000Y-95430000D03*
%TO.P,PIC18F4550,29,P1C/SPP6/RD6*%
%TO.N,pin29*%
X157000000Y-92890000D03*
%TO.P,PIC18F4550,30,P1D/SPP7/RD7*%
%TO.N,pin30*%
X157000000Y-90350000D03*
%TO.P,PIC18F4550,31,VSS*%
%TO.N,Earth*%
X157000000Y-87810000D03*
%TO.P,PIC18F4550,32,VDD*%
%TO.N,VCC*%
X157000000Y-85270000D03*
%TO.P,PIC18F4550,33,RB0/AN12/INT0/FLT0/SDI/SDA*%
%TO.N,pin33*%
X157000000Y-82730000D03*
%TO.P,PIC18F4550,34,RB1/AN10/INT1/SCK/SCL*%
%TO.N,pin34*%
X157000000Y-80190000D03*
%TO.P,PIC18F4550,35,RB2/AN8/INT2/VMO*%
%TO.N,pin35*%
X157000000Y-77650000D03*
%TO.P,PIC18F4550,36,RB3/AN9/CCP2/VPO*%
%TO.N,pin36*%
X157000000Y-75110000D03*
%TO.P,PIC18F4550,37,RB4/AN11/KBI0/CSSPP*%
%TO.N,pin37*%
X157000000Y-72570000D03*
%TO.P,PIC18F4550,38,RB5/KBI1/PGM*%
%TO.N,pin38*%
X157000000Y-70030000D03*
%TO.P,PIC18F4550,39,RB6/KBI2/PGC*%
%TO.N,pin39*%
X157000000Y-67490000D03*
%TO.P,PIC18F4550,40,RB7/KBI3/PGD*%
%TO.N,pin40*%
X157000000Y-64950000D03*
%TD*%
D17*
%TO.P,LEDR,1,K*%
%TO.N,Net-(D2-K)*%
X144620000Y-57940000D03*
D18*
%TO.P,LEDR,2,A*%
%TO.N,VCC*%
X142080000Y-57940000D03*
%TD*%
D14*
%TO.P,J4,1,Pin_1*%
%TO.N,pin2*%
X128450000Y-65210000D03*
D15*
%TO.P,J4,2,Pin_2*%
%TO.N,pin3*%
X128450000Y-67750000D03*
%TO.P,J4,3,Pin_3*%
%TO.N,pin4*%
X128450000Y-70290000D03*
%TO.P,J4,4,Pin_4*%
%TO.N,pin5*%
X128450000Y-72830000D03*
%TO.P,J4,5,Pin_5*%
%TO.N,pin7*%
X128450000Y-75370000D03*
%TO.P,J4,6,Pin_6*%
%TO.N,pin8*%
X128450000Y-77910000D03*
%TO.P,J4,7,Pin_7*%
%TO.N,pin9*%
X128450000Y-80450000D03*
%TO.P,J4,8,Pin_8*%
%TO.N,pin10*%
X128450000Y-82990000D03*
%TO.P,J4,9,Pin_9*%
%TO.N,pin15*%
X128450000Y-85530000D03*
%TO.P,J4,10,Pin_10*%
%TO.N,pin16*%
X128450000Y-88070000D03*
%TO.P,J4,11,Pin_11*%
%TO.N,pin17*%
X128450000Y-90610000D03*
%TO.P,J4,12,Pin_12*%
%TO.N,pin20*%
X128450000Y-93150000D03*
%TO.P,J4,13,Pin_13*%
%TO.N,pin19*%
X128450000Y-95690000D03*
%TD*%
D16*
%TO.P,USB,1,VBUS*%
%TO.N,VCC*%
X150700000Y-124690000D03*
D10*
%TO.P,USB,2,D-*%
%TO.N,Net-(J1-D-)*%
X148200000Y-124690000D03*
%TO.P,USB,3,D+*%
%TO.N,Net-(J1-D+)*%
X148200000Y-126690000D03*
%TO.P,USB,4,GND*%
%TO.N,Earth*%
X150700000Y-126690000D03*
D19*
%TO.P,USB,5,Shield*%
X155450000Y-129550000D03*
X143450000Y-129550000D03*
%TD*%
D20*
%TO.P,T-block,1,Pin_1*%
%TO.N,Earth*%
X171150000Y-134700000D03*
D21*
%TO.P,T-block,2,Pin_2*%
%TO.N,VCC*%
X176150000Y-134700000D03*
%TD*%
D14*
%TO.P,J6,1,Pin_1*%
%TO.N,pin40*%
X165800000Y-65150000D03*
D15*
%TO.P,J6,2,Pin_2*%
%TO.N,pin39*%
X165800000Y-67690000D03*
%TO.P,J6,3,Pin_3*%
%TO.N,pin38*%
X165800000Y-70230000D03*
%TO.P,J6,4,Pin_4*%
%TO.N,pin37*%
X165800000Y-72770000D03*
%TO.P,J6,5,Pin_5*%
%TO.N,pin36*%
X165800000Y-75310000D03*
%TO.P,J6,6,Pin_6*%
%TO.N,pin35*%
X165800000Y-77850000D03*
%TO.P,J6,7,Pin_7*%
%TO.N,pin34*%
X165800000Y-80390000D03*
%TO.P,J6,8,Pin_8*%
%TO.N,pin33*%
X165800000Y-82930000D03*
%TO.P,J6,9,Pin_9*%
%TO.N,pin30*%
X165800000Y-85470000D03*
%TO.P,J6,10,Pin_10*%
%TO.N,pin29*%
X165800000Y-88010000D03*
%TO.P,J6,11,Pin_11*%
%TO.N,pin28*%
X165800000Y-90550000D03*
%TO.P,J6,12,Pin_12*%
%TO.N,pin27*%
X165800000Y-93090000D03*
%TO.P,J6,13,Pin_13*%
%TO.N,pin26*%
X165800000Y-95630000D03*
%TO.P,J6,14,Pin_14*%
%TO.N,pin25*%
X165800000Y-98170000D03*
%TO.P,J6,15,Pin_15*%
%TO.N,pin22*%
X165800000Y-100710000D03*
%TO.P,J6,16,Pin_16*%
%TO.N,pin21*%
X165800000Y-103250000D03*
%TD*%
D17*
%TO.P,LEDV,1,K*%
%TO.N,Net-(D1-K)*%
X144680000Y-50090000D03*
D18*
%TO.P,LEDV,2,A*%
%TO.N,VCC*%
X142140000Y-50090000D03*
%TD*%
D10*
%TO.P,R470,1*%
%TO.N,Net-(U1-RA4{slash}T0CKI{slash}C1OUT{slash}RCV)*%
X156190000Y-50040000D03*
D11*
%TO.P,R470,2*%
%TO.N,Net-(D1-K)*%
X148570000Y-50040000D03*
%TD*%
D10*
%TO.P,15pF,1*%
%TO.N,Net-(U1-RA6{slash}OSC2{slash}CLKO)*%
X123450000Y-102800000D03*
%TO.P,15pF,2*%
%TO.N,Earth*%
X125950000Y-102800000D03*
%TD*%
D14*
%TO.P,GND,1,Pin_1*%
%TO.N,Earth*%
X113950000Y-65050000D03*
D15*
%TO.P,GND,2,Pin_2*%
X113950000Y-67590000D03*
%TO.P,GND,3,Pin_3*%
X113950000Y-70130000D03*
%TO.P,GND,4,Pin_4*%
X113950000Y-72670000D03*
%TO.P,GND,5,Pin_5*%
X113950000Y-75210000D03*
%TO.P,GND,6,Pin_6*%
X113950000Y-77750000D03*
%TO.P,GND,7,Pin_7*%
X113950000Y-80290000D03*
%TO.P,GND,8,Pin_8*%
X113950000Y-82830000D03*
%TO.P,GND,9,Pin_9*%
X113950000Y-85370000D03*
%TO.P,GND,10,Pin_10*%
X113950000Y-87910000D03*
%TO.P,GND,11,Pin_11*%
X113950000Y-90450000D03*
%TO.P,GND,12,Pin_12*%
X113950000Y-92990000D03*
%TO.P,GND,13,Pin_13*%
X113950000Y-95530000D03*
%TD*%
D10*
%TO.P,R470,1*%
%TO.N,Net-(D2-K)*%
X149100000Y-57900000D03*
D11*
%TO.P,R470,2*%
%TO.N,Earth*%
X156720000Y-57900000D03*
%TD*%
D22*
%TO.P,20MHz,1,1*%
%TO.N,Net-(U1-RA6{slash}OSC2{slash}CLKO)*%
X122400000Y-112750000D03*
%TO.P,20MHz,2,2*%
%TO.N,Net-(U1-OSC1{slash}CLKI)*%
X134740000Y-112750000D03*
%TD*%
D14*
%TO.P,J8,1,Pin_1*%
%TO.N,pin40*%
X174900000Y-65150000D03*
D15*
%TO.P,J8,2,Pin_2*%
%TO.N,pin39*%
X174900000Y-67690000D03*
%TO.P,J8,3,Pin_3*%
%TO.N,pin38*%
X174900000Y-70230000D03*
%TO.P,J8,4,Pin_4*%
%TO.N,pin37*%
X174900000Y-72770000D03*
%TO.P,J8,5,Pin_5*%
%TO.N,pin36*%
X174900000Y-75310000D03*
%TO.P,J8,6,Pin_6*%
%TO.N,pin35*%
X174900000Y-77850000D03*
%TO.P,J8,7,Pin_7*%
%TO.N,pin34*%
X174900000Y-80390000D03*
%TO.P,J8,8,Pin_8*%
%TO.N,pin33*%
X174900000Y-82930000D03*
%TO.P,J8,9,Pin_9*%
%TO.N,pin30*%
X174900000Y-85470000D03*
%TO.P,J8,10,Pin_10*%
%TO.N,pin29*%
X174900000Y-88010000D03*
%TO.P,J8,11,Pin_11*%
%TO.N,pin28*%
X174900000Y-90550000D03*
%TO.P,J8,12,Pin_12*%
%TO.N,pin27*%
X174900000Y-93090000D03*
%TO.P,J8,13,Pin_13*%
%TO.N,pin26*%
X174900000Y-95630000D03*
%TO.P,J8,14,Pin_14*%
%TO.N,pin25*%
X174900000Y-98170000D03*
%TO.P,J8,15,Pin_15*%
%TO.N,pin22*%
X174900000Y-100710000D03*
%TO.P,J8,16,Pin_16*%
%TO.N,pin21*%
X174900000Y-103250000D03*
%TD*%
D14*
%TO.P,J5,1,Pin_1*%
%TO.N,pin2*%
X133100000Y-65210000D03*
D15*
%TO.P,J5,2,Pin_2*%
%TO.N,pin3*%
X133100000Y-67750000D03*
%TO.P,J5,3,Pin_3*%
%TO.N,pin4*%
X133100000Y-70290000D03*
%TO.P,J5,4,Pin_4*%
%TO.N,pin5*%
X133100000Y-72830000D03*
%TO.P,J5,5,Pin_5*%
%TO.N,pin7*%
X133100000Y-75370000D03*
%TO.P,J5,6,Pin_6*%
%TO.N,pin8*%
X133100000Y-77910000D03*
%TO.P,J5,7,Pin_7*%
%TO.N,pin9*%
X133100000Y-80450000D03*
%TO.P,J5,8,Pin_8*%
%TO.N,pin10*%
X133100000Y-82990000D03*
%TO.P,J5,9,Pin_9*%
%TO.N,pin15*%
X133100000Y-85530000D03*
%TO.P,J5,10,Pin_10*%
%TO.N,pin16*%
X133100000Y-88070000D03*
%TO.P,J5,11,Pin_11*%
%TO.N,pin17*%
X133100000Y-90610000D03*
%TO.P,J5,12,Pin_12*%
%TO.N,pin20*%
X133100000Y-93150000D03*
%TO.P,J5,13,Pin_13*%
%TO.N,pin19*%
X133100000Y-95690000D03*
%TD*%
D14*
%TO.P,J7,1,Pin_1*%
%TO.N,pin40*%
X170150000Y-65150000D03*
D15*
%TO.P,J7,2,Pin_2*%
%TO.N,pin39*%
X170150000Y-67690000D03*
%TO.P,J7,3,Pin_3*%
%TO.N,pin38*%
X170150000Y-70230000D03*
%TO.P,J7,4,Pin_4*%
%TO.N,pin37*%
X170150000Y-72770000D03*
%TO.P,J7,5,Pin_5*%
%TO.N,pin36*%
X170150000Y-75310000D03*
%TO.P,J7,6,Pin_6*%
%TO.N,pin35*%
X170150000Y-77850000D03*
%TO.P,J7,7,Pin_7*%
%TO.N,pin34*%
X170150000Y-80390000D03*
%TO.P,J7,8,Pin_8*%
%TO.N,pin33*%
X170150000Y-82930000D03*
%TO.P,J7,9,Pin_9*%
%TO.N,pin30*%
X170150000Y-85470000D03*
%TO.P,J7,10,Pin_10*%
%TO.N,pin29*%
X170150000Y-88010000D03*
%TO.P,J7,11,Pin_11*%
%TO.N,pin28*%
X170150000Y-90550000D03*
%TO.P,J7,12,Pin_12*%
%TO.N,pin27*%
X170150000Y-93090000D03*
%TO.P,J7,13,Pin_13*%
%TO.N,pin26*%
X170150000Y-95630000D03*
%TO.P,J7,14,Pin_14*%
%TO.N,pin25*%
X170150000Y-98170000D03*
%TO.P,J7,15,Pin_15*%
%TO.N,pin22*%
X170150000Y-100710000D03*
%TO.P,J7,16,Pin_16*%
%TO.N,pin21*%
X170150000Y-103250000D03*
%TD*%
D14*
%TO.P,GND,1,Pin_1*%
%TO.N,Earth*%
X188650000Y-65120000D03*
D15*
%TO.P,GND,2,Pin_2*%
X188650000Y-67660000D03*
%TO.P,GND,3,Pin_3*%
X188650000Y-70200000D03*
%TO.P,GND,4,Pin_4*%
X188650000Y-72740000D03*
%TO.P,GND,5,Pin_5*%
X188650000Y-75280000D03*
%TO.P,GND,6,Pin_6*%
X188650000Y-77820000D03*
%TO.P,GND,7,Pin_7*%
X188650000Y-80360000D03*
%TO.P,GND,8,Pin_8*%
X188650000Y-82900000D03*
%TO.P,GND,9,Pin_9*%
X188650000Y-85440000D03*
%TO.P,GND,10,Pin_10*%
X188650000Y-87980000D03*
%TO.P,GND,11,Pin_11*%
X188650000Y-90520000D03*
%TO.P,GND,12,Pin_12*%
X188650000Y-93060000D03*
%TO.P,GND,13,Pin_13*%
X188650000Y-95600000D03*
%TO.P,GND,14,Pin_14*%
X188650000Y-98140000D03*
%TO.P,GND,15,Pin_15*%
X188650000Y-100680000D03*
%TO.P,GND,16,Pin_16*%
X188650000Y-103220000D03*
%TD*%
D23*
%TO.N,Net-(U1-Vpp{slash}~{MCLR}{slash}RE3)*%
X141760000Y-64910000D02*
X141350000Y-64500000D01*
X141760000Y-64950000D02*
X141760000Y-64910000D01*
%TO.N,Earth*%
X129635000Y-53150000D02*
X136135000Y-53150000D01*
X129585000Y-53200000D02*
X129635000Y-53150000D01*
X120950000Y-53200000D02*
X129585000Y-53200000D01*
%TO.N,Net-(U1-Vpp{slash}~{MCLR}{slash}RE3)*%
X120950000Y-57700000D02*
X114450000Y-57700000D01*
%TO.N,Earth*%
X120950000Y-53200000D02*
X114450000Y-53200000D01*
%TO.N,VCC*%
X165990000Y-120700000D02*
X166100000Y-120810000D01*
X154690000Y-120700000D02*
X165990000Y-120700000D01*
X150700000Y-124690000D02*
X154690000Y-120700000D01*
X176150000Y-130860000D02*
X176150000Y-134700000D01*
X166100000Y-120810000D02*
X176150000Y-130860000D01*
%TO.N,Earth*%
X165972500Y-129522500D02*
X171150000Y-134700000D01*
X156720000Y-57900000D02*
X152550000Y-62070000D01*
X188650000Y-65120000D02*
X188650000Y-103220000D01*
X155477500Y-129522500D02*
X165972500Y-129522500D01*
X152550000Y-84850000D02*
X155510000Y-87810000D01*
X155510000Y-87810000D02*
X157000000Y-87810000D01*
X113950000Y-95530000D02*
X113950000Y-65050000D01*
X121272500Y-129522500D02*
X143450000Y-129522500D01*
X155450000Y-129550000D02*
X155477500Y-129522500D01*
X113950000Y-95530000D02*
X113950000Y-122200000D01*
X113950000Y-122200000D02*
X121272500Y-129522500D01*
X152550000Y-62070000D02*
X152550000Y-84850000D01*
%TO.N,VCC*%
X146900000Y-64900000D02*
X143450000Y-61450000D01*
X146900000Y-85210000D02*
X146900000Y-64900000D01*
X109300000Y-65050000D02*
X109300000Y-95530000D01*
X112900000Y-61450000D02*
X109300000Y-65050000D01*
X143450000Y-61450000D02*
X112900000Y-61450000D01*
X184000000Y-61850000D02*
X184000000Y-65120000D01*
X141760000Y-90350000D02*
X146900000Y-85210000D01*
X184000000Y-65120000D02*
X184000000Y-103220000D01*
X160450000Y-50290000D02*
X172440000Y-50290000D01*
X172440000Y-50290000D02*
X184000000Y-61850000D01*
%TO.N,pin16*%
X134820000Y-88070000D02*
X137900000Y-91150000D01*
X133100000Y-88070000D02*
X134820000Y-88070000D01*
X133100000Y-88070000D02*
X128450000Y-88070000D01*
X128450000Y-88070000D02*
X123800000Y-88070000D01*
X137900000Y-91150000D02*
X137900000Y-99190000D01*
X137900000Y-99190000D02*
X141760000Y-103050000D01*
%TO.N,pin17*%
X136100000Y-92250000D02*
X136100000Y-103750000D01*
X136100000Y-103750000D02*
X137940000Y-105590000D01*
X133100000Y-90610000D02*
X134460000Y-90610000D01*
X133100000Y-90610000D02*
X128450000Y-90610000D01*
X128450000Y-90610000D02*
X123800000Y-90610000D01*
X134460000Y-90610000D02*
X136100000Y-92250000D01*
X137940000Y-105590000D02*
X141760000Y-105590000D01*
%TO.N,pin21*%
X165800000Y-103250000D02*
X170150000Y-103250000D01*
X165800000Y-109100000D02*
X165800000Y-103250000D01*
X170150000Y-103250000D02*
X174900000Y-103250000D01*
X161690000Y-113210000D02*
X165800000Y-109100000D01*
X157000000Y-113210000D02*
X161690000Y-113210000D01*
%TO.N,pin19*%
X138070000Y-110670000D02*
X141760000Y-110670000D01*
X128450000Y-95690000D02*
X123800000Y-95690000D01*
X133550000Y-106150000D02*
X138070000Y-110670000D01*
X128450000Y-95690000D02*
X133100000Y-95690000D01*
X129150000Y-106150000D02*
X133550000Y-106150000D01*
X128450000Y-105450000D02*
X129150000Y-106150000D01*
X128450000Y-95690000D02*
X128450000Y-105450000D01*
%TO.N,pin25*%
X157000000Y-103050000D02*
X160920000Y-103050000D01*
X165800000Y-98170000D02*
X170150000Y-98170000D01*
X160920000Y-103050000D02*
X165800000Y-98170000D01*
X170150000Y-98170000D02*
X174900000Y-98170000D01*
%TO.N,pin20*%
X137020000Y-117950000D02*
X141760000Y-113210000D01*
X123800000Y-93150000D02*
X119400000Y-97550000D01*
X122100000Y-117950000D02*
X137020000Y-117950000D01*
X128450000Y-93150000D02*
X133100000Y-93150000D01*
X119400000Y-115250000D02*
X122100000Y-117950000D01*
X119400000Y-97550000D02*
X119400000Y-115250000D01*
X123800000Y-93150000D02*
X128450000Y-93150000D01*
%TO.N,pin26*%
X160920000Y-100510000D02*
X165800000Y-95630000D01*
X165800000Y-95630000D02*
X170150000Y-95630000D01*
X157000000Y-100510000D02*
X160920000Y-100510000D01*
X170150000Y-95630000D02*
X174900000Y-95630000D01*
%TO.N,pin15*%
X141760000Y-100510000D02*
X139600000Y-98350000D01*
X134630000Y-85530000D02*
X133100000Y-85530000D01*
X133100000Y-85530000D02*
X128450000Y-85530000D01*
X139600000Y-98350000D02*
X139600000Y-90500000D01*
X128450000Y-85530000D02*
X123800000Y-85530000D01*
X139600000Y-90500000D02*
X134630000Y-85530000D01*
%TO.N,pin27*%
X165800000Y-93090000D02*
X170150000Y-93090000D01*
X170150000Y-93090000D02*
X174900000Y-93090000D01*
X157000000Y-97970000D02*
X160920000Y-97970000D01*
X160920000Y-97970000D02*
X165800000Y-93090000D01*
%TO.N,pin28*%
X160920000Y-95430000D02*
X165800000Y-90550000D01*
X170150000Y-90550000D02*
X174900000Y-90550000D01*
X157000000Y-95430000D02*
X160920000Y-95430000D01*
X165800000Y-90550000D02*
X170150000Y-90550000D01*
%TO.N,pin30*%
X157000000Y-90350000D02*
X160920000Y-90350000D01*
X170150000Y-85470000D02*
X174900000Y-85470000D01*
X165800000Y-85470000D02*
X170150000Y-85470000D01*
X160920000Y-90350000D02*
X165800000Y-85470000D01*
%TO.N,pin22*%
X160030000Y-110670000D02*
X162650000Y-108050000D01*
X170150000Y-100710000D02*
X174900000Y-100710000D01*
X162650000Y-108050000D02*
X162650000Y-103860000D01*
X165800000Y-100710000D02*
X170150000Y-100710000D01*
X162650000Y-103860000D02*
X165800000Y-100710000D01*
X157000000Y-110670000D02*
X160030000Y-110670000D01*
%TO.N,pin29*%
X165800000Y-88010000D02*
X170150000Y-88010000D01*
X157000000Y-92890000D02*
X160920000Y-92890000D01*
X160920000Y-92890000D02*
X165800000Y-88010000D01*
X170150000Y-88010000D02*
X174900000Y-88010000D01*
%TO.N,Net-(U1-Vpp{slash}~{MCLR}{slash}RE3)*%
X120950000Y-57700000D02*
X122950000Y-55700000D01*
X158240000Y-55700000D02*
X160450000Y-57910000D01*
X122950000Y-55700000D02*
X158240000Y-55700000D01*
%TD*%
M02*
