%TF.GenerationSoftware,KiCad,Pcbnew,8.0.8*%
%TF.CreationDate,2025-04-09T17:27:57-06:00*%
%TF.ProjectId,Coquirana1,436f7175-6972-4616-9e61-312e6b696361,rev?*%
%TF.SameCoordinates,Original*%
%TF.FileFunction,Soldermask,Bot*%
%TF.FilePolarity,Negative*%
%FSLAX46Y46*%
G04 Gerber Fmt 4.6, Leading zero omitted, Abs format (unit mm)*
G04 Created by KiCad (PCBNEW 8.0.8) date 2025-04-09 17:27:57*
%MOMM*%
%LPD*%
G01*
G04 APERTURE LIST*
%ADD10C,1.600000*%
%ADD11O,1.600000X1.600000*%
%ADD12R,1.700000X1.700000*%
%ADD13O,1.700000X1.700000*%
%ADD14R,2.250000X2.250000*%
%ADD15C,2.250000*%
%ADD16R,1.600000X1.600000*%
%ADD17R,1.800000X1.800000*%
%ADD18C,1.800000*%
%ADD19R,1.980000X3.960000*%
%ADD20O,1.980000X3.960000*%
%ADD21C,4.000000*%
%ADD22C,2.700000*%
G04 APERTURE END LIST*
D10*
%TO.C,R1*%
X160450000Y-57910000D03*
D11*
X160450000Y-50290000D03*
%TD*%
D12*
%TO.C,J3*%
X123800000Y-65210000D03*
D13*
X123800000Y-67750000D03*
X123800000Y-70290000D03*
X123800000Y-72830000D03*
X123800000Y-75370000D03*
X123800000Y-77910000D03*
X123800000Y-80450000D03*
X123800000Y-82990000D03*
X123800000Y-85530000D03*
X123800000Y-88070000D03*
X123800000Y-90610000D03*
X123800000Y-93150000D03*
X123800000Y-95690000D03*
%TD*%
D10*
%TO.C,C1*%
X130400000Y-102850000D03*
X132900000Y-102850000D03*
%TD*%
D14*
%TO.C,SW1*%
X137650000Y-57350000D03*
D15*
X137650000Y-50850000D03*
%TD*%
D16*
%TO.C,C3*%
X129982380Y-124550000D03*
D10*
X127482380Y-124550000D03*
%TD*%
D16*
%TO.C,U1*%
X141760000Y-64950000D03*
D11*
X141760000Y-67490000D03*
X141760000Y-70030000D03*
X141760000Y-72570000D03*
X141760000Y-75110000D03*
X141760000Y-77650000D03*
X141760000Y-80190000D03*
X141760000Y-82730000D03*
X141760000Y-85270000D03*
X141760000Y-87810000D03*
X141760000Y-90350000D03*
X141760000Y-92890000D03*
X141760000Y-95430000D03*
X141760000Y-97970000D03*
X141760000Y-100510000D03*
X141760000Y-103050000D03*
X141760000Y-105590000D03*
X141760000Y-108130000D03*
X141760000Y-110670000D03*
X141760000Y-113210000D03*
X157000000Y-113210000D03*
X157000000Y-110670000D03*
X157000000Y-108130000D03*
X157000000Y-105590000D03*
X157000000Y-103050000D03*
X157000000Y-100510000D03*
X157000000Y-97970000D03*
X157000000Y-95430000D03*
X157000000Y-92890000D03*
X157000000Y-90350000D03*
X157000000Y-87810000D03*
X157000000Y-85270000D03*
X157000000Y-82730000D03*
X157000000Y-80190000D03*
X157000000Y-77650000D03*
X157000000Y-75110000D03*
X157000000Y-72570000D03*
X157000000Y-70030000D03*
X157000000Y-67490000D03*
X157000000Y-64950000D03*
%TD*%
D17*
%TO.C,D2*%
X144620000Y-57940000D03*
D18*
X142080000Y-57940000D03*
%TD*%
D12*
%TO.C,J4*%
X128450000Y-65210000D03*
D13*
X128450000Y-67750000D03*
X128450000Y-70290000D03*
X128450000Y-72830000D03*
X128450000Y-75370000D03*
X128450000Y-77910000D03*
X128450000Y-80450000D03*
X128450000Y-82990000D03*
X128450000Y-85530000D03*
X128450000Y-88070000D03*
X128450000Y-90610000D03*
X128450000Y-93150000D03*
X128450000Y-95690000D03*
%TD*%
D19*
%TO.C,J2*%
X167235000Y-134150000D03*
D20*
X172235000Y-134150000D03*
%TD*%
D12*
%TO.C,J6*%
X165800000Y-65150000D03*
D13*
X165800000Y-67690000D03*
X165800000Y-70230000D03*
X165800000Y-72770000D03*
X165800000Y-75310000D03*
X165800000Y-77850000D03*
X165800000Y-80390000D03*
X165800000Y-82930000D03*
X165800000Y-85470000D03*
X165800000Y-88010000D03*
X165800000Y-90550000D03*
X165800000Y-93090000D03*
X165800000Y-95630000D03*
X165800000Y-98170000D03*
X165800000Y-100710000D03*
X165800000Y-103250000D03*
%TD*%
D17*
%TO.C,D1*%
X144680000Y-50090000D03*
D18*
X142140000Y-50090000D03*
%TD*%
D10*
%TO.C,R2*%
X156190000Y-50040000D03*
D11*
X148570000Y-50040000D03*
%TD*%
D10*
%TO.C,C2*%
X123450000Y-102800000D03*
X125950000Y-102800000D03*
%TD*%
D16*
%TO.C,J1*%
X150700000Y-124662500D03*
D10*
X148200000Y-124662500D03*
X148200000Y-126662500D03*
X150700000Y-126662500D03*
D21*
X155450000Y-129522500D03*
X143450000Y-129522500D03*
%TD*%
D10*
%TO.C,R3*%
X149100000Y-57900000D03*
D11*
X156720000Y-57900000D03*
%TD*%
D22*
%TO.C,Y1*%
X122400000Y-112750000D03*
X134740000Y-112750000D03*
%TD*%
D12*
%TO.C,J8*%
X174900000Y-65150000D03*
D13*
X174900000Y-67690000D03*
X174900000Y-70230000D03*
X174900000Y-72770000D03*
X174900000Y-75310000D03*
X174900000Y-77850000D03*
X174900000Y-80390000D03*
X174900000Y-82930000D03*
X174900000Y-85470000D03*
X174900000Y-88010000D03*
X174900000Y-90550000D03*
X174900000Y-93090000D03*
X174900000Y-95630000D03*
X174900000Y-98170000D03*
X174900000Y-100710000D03*
X174900000Y-103250000D03*
%TD*%
D12*
%TO.C,J5*%
X133100000Y-65210000D03*
D13*
X133100000Y-67750000D03*
X133100000Y-70290000D03*
X133100000Y-72830000D03*
X133100000Y-75370000D03*
X133100000Y-77910000D03*
X133100000Y-80450000D03*
X133100000Y-82990000D03*
X133100000Y-85530000D03*
X133100000Y-88070000D03*
X133100000Y-90610000D03*
X133100000Y-93150000D03*
X133100000Y-95690000D03*
%TD*%
D12*
%TO.C,J7*%
X170150000Y-65150000D03*
D13*
X170150000Y-67690000D03*
X170150000Y-70230000D03*
X170150000Y-72770000D03*
X170150000Y-75310000D03*
X170150000Y-77850000D03*
X170150000Y-80390000D03*
X170150000Y-82930000D03*
X170150000Y-85470000D03*
X170150000Y-88010000D03*
X170150000Y-90550000D03*
X170150000Y-93090000D03*
X170150000Y-95630000D03*
X170150000Y-98170000D03*
X170150000Y-100710000D03*
X170150000Y-103250000D03*
%TD*%
M02*
