%TF.GenerationSoftware,KiCad,Pcbnew,8.0.8*%
%TF.CreationDate,2025-04-17T23:47:29-06:00*%
%TF.ProjectId,Coquirana1,436f7175-6972-4616-9e61-312e6b696361,rev?*%
%TF.SameCoordinates,Original*%
%TF.FileFunction,Copper,L2,Bot*%
%TF.FilePolarity,Positive*%
%FSLAX46Y46*%
G04 Gerber Fmt 4.6, Leading zero omitted, Abs format (unit mm)*
G04 Created by KiCad (PCBNEW 8.0.8) date 2025-04-17 23:47:29*
%MOMM*%
%LPD*%
G01*
G04 APERTURE LIST*
%ADD10C,0.125000*%
%TA.AperFunction,NonConductor*%
%ADD11C,0.125000*%
%TD*%
%ADD12C,0.300000*%
%TA.AperFunction,NonConductor*%
%ADD13C,0.300000*%
%TD*%
%TA.AperFunction,ComponentPad*%
%ADD14C,1.600000*%
%TD*%
%TA.AperFunction,ComponentPad*%
%ADD15O,1.600000X1.600000*%
%TD*%
%TA.AperFunction,ComponentPad*%
%ADD16C,1.498000*%
%TD*%
%TA.AperFunction,ComponentPad*%
%ADD17R,1.498000X1.498000*%
%TD*%
%TA.AperFunction,ComponentPad*%
%ADD18R,1.700000X1.700000*%
%TD*%
%TA.AperFunction,ComponentPad*%
%ADD19O,1.700000X1.700000*%
%TD*%
%TA.AperFunction,ComponentPad*%
%ADD20R,1.600000X1.600000*%
%TD*%
%TA.AperFunction,ComponentPad*%
%ADD21R,1.800000X1.800000*%
%TD*%
%TA.AperFunction,ComponentPad*%
%ADD22C,1.800000*%
%TD*%
%TA.AperFunction,ComponentPad*%
%ADD23C,4.000000*%
%TD*%
%TA.AperFunction,ComponentPad*%
%ADD24R,1.980000X3.960000*%
%TD*%
%TA.AperFunction,ComponentPad*%
%ADD25O,1.980000X3.960000*%
%TD*%
%TA.AperFunction,ComponentPad*%
%ADD26C,2.700000*%
%TD*%
%TA.AperFunction,Conductor*%
%ADD27C,1.000000*%
%TD*%
%TA.AperFunction,Conductor*%
%ADD28C,0.200000*%
%TD*%
G04 APERTURE END LIST*
D10*
D11*
X115856230Y-115945237D02*
X115780039Y-115726189D01*
X115780039Y-115726189D02*
X115780039Y-115345237D01*
X115780039Y-115345237D02*
X115856230Y-115183332D01*
X115856230Y-115183332D02*
X115932420Y-115097618D01*
X115932420Y-115097618D02*
X116084801Y-115002379D01*
X116084801Y-115002379D02*
X116237182Y-114983332D01*
X116237182Y-114983332D02*
X116389563Y-115040475D01*
X116389563Y-115040475D02*
X116465753Y-115107141D01*
X116465753Y-115107141D02*
X116541944Y-115249999D01*
X116541944Y-115249999D02*
X116618134Y-115545237D01*
X116618134Y-115545237D02*
X116694325Y-115688094D01*
X116694325Y-115688094D02*
X116770515Y-115754760D01*
X116770515Y-115754760D02*
X116922896Y-115811903D01*
X116922896Y-115811903D02*
X117075277Y-115792856D01*
X117075277Y-115792856D02*
X117227658Y-115697618D01*
X117227658Y-115697618D02*
X117303849Y-115611903D01*
X117303849Y-115611903D02*
X117380039Y-115449999D01*
X117380039Y-115449999D02*
X117380039Y-115069046D01*
X117380039Y-115069046D02*
X117303849Y-114849999D01*
X117380039Y-114154760D02*
X116084801Y-114316665D01*
X116084801Y-114316665D02*
X115932420Y-114259522D01*
X115932420Y-114259522D02*
X115856230Y-114192855D01*
X115856230Y-114192855D02*
X115780039Y-114049998D01*
X115780039Y-114049998D02*
X115780039Y-113745236D01*
X115780039Y-113745236D02*
X115856230Y-113583331D01*
X115856230Y-113583331D02*
X115932420Y-113497617D01*
X115932420Y-113497617D02*
X116084801Y-113402379D01*
X116084801Y-113402379D02*
X117380039Y-113240474D01*
X115780039Y-112678570D02*
X117380039Y-112478570D01*
X117380039Y-112478570D02*
X116237182Y-112088094D01*
X116237182Y-112088094D02*
X117380039Y-111411903D01*
X117380039Y-111411903D02*
X115780039Y-111611903D01*
X117380039Y-110345237D02*
X117380039Y-110040475D01*
X117380039Y-110040475D02*
X117303849Y-109897618D01*
X117303849Y-109897618D02*
X117151468Y-109764285D01*
X117151468Y-109764285D02*
X116846706Y-109726189D01*
X116846706Y-109726189D02*
X116313372Y-109792856D01*
X116313372Y-109792856D02*
X116008610Y-109907142D01*
X116008610Y-109907142D02*
X115856230Y-110078570D01*
X115856230Y-110078570D02*
X115780039Y-110240475D01*
X115780039Y-110240475D02*
X115780039Y-110545237D01*
X115780039Y-110545237D02*
X115856230Y-110688094D01*
X115856230Y-110688094D02*
X116008610Y-110821428D01*
X116008610Y-110821428D02*
X116313372Y-110859523D01*
X116313372Y-110859523D02*
X116846706Y-110792856D01*
X116846706Y-110792856D02*
X117151468Y-110678570D01*
X117151468Y-110678570D02*
X117303849Y-110507142D01*
X117303849Y-110507142D02*
X117380039Y-110345237D01*
X116618134Y-108535714D02*
X116541944Y-108316666D01*
X116541944Y-108316666D02*
X116465753Y-108249999D01*
X116465753Y-108249999D02*
X116313372Y-108192857D01*
X116313372Y-108192857D02*
X116084801Y-108221428D01*
X116084801Y-108221428D02*
X115932420Y-108316666D01*
X115932420Y-108316666D02*
X115856230Y-108402380D01*
X115856230Y-108402380D02*
X115780039Y-108564285D01*
X115780039Y-108564285D02*
X115780039Y-109173809D01*
X115780039Y-109173809D02*
X117380039Y-108973809D01*
X117380039Y-108973809D02*
X117380039Y-108440476D01*
X117380039Y-108440476D02*
X117303849Y-108297618D01*
X117303849Y-108297618D02*
X117227658Y-108230952D01*
X117227658Y-108230952D02*
X117075277Y-108173809D01*
X117075277Y-108173809D02*
X116922896Y-108192857D01*
X116922896Y-108192857D02*
X116770515Y-108288095D01*
X116770515Y-108288095D02*
X116694325Y-108373809D01*
X116694325Y-108373809D02*
X116618134Y-108535714D01*
X116618134Y-108535714D02*
X116618134Y-109069047D01*
X117380039Y-107069047D02*
X117380039Y-106764285D01*
X117380039Y-106764285D02*
X117303849Y-106621428D01*
X117303849Y-106621428D02*
X117151468Y-106488095D01*
X117151468Y-106488095D02*
X116846706Y-106449999D01*
X116846706Y-106449999D02*
X116313372Y-106516666D01*
X116313372Y-106516666D02*
X116008610Y-106630952D01*
X116008610Y-106630952D02*
X115856230Y-106802380D01*
X115856230Y-106802380D02*
X115780039Y-106964285D01*
X115780039Y-106964285D02*
X115780039Y-107269047D01*
X115780039Y-107269047D02*
X115856230Y-107411904D01*
X115856230Y-107411904D02*
X116008610Y-107545238D01*
X116008610Y-107545238D02*
X116313372Y-107583333D01*
X116313372Y-107583333D02*
X116846706Y-107516666D01*
X116846706Y-107516666D02*
X117151468Y-107402380D01*
X117151468Y-107402380D02*
X117303849Y-107230952D01*
X117303849Y-107230952D02*
X117380039Y-107069047D01*
X117380039Y-105926190D02*
X117380039Y-105011905D01*
X115780039Y-105669048D02*
X117380039Y-105469048D01*
X113356510Y-118107143D02*
X113280320Y-118192857D01*
X113280320Y-118192857D02*
X113204129Y-118430952D01*
X113204129Y-118430952D02*
X113204129Y-118583333D01*
X113204129Y-118583333D02*
X113280320Y-118802381D01*
X113280320Y-118802381D02*
X113432700Y-118935714D01*
X113432700Y-118935714D02*
X113585081Y-118992857D01*
X113585081Y-118992857D02*
X113889843Y-119030952D01*
X113889843Y-119030952D02*
X114118415Y-119002381D01*
X114118415Y-119002381D02*
X114423177Y-118888095D01*
X114423177Y-118888095D02*
X114575558Y-118792857D01*
X114575558Y-118792857D02*
X114727939Y-118621428D01*
X114727939Y-118621428D02*
X114804129Y-118383333D01*
X114804129Y-118383333D02*
X114804129Y-118230952D01*
X114804129Y-118230952D02*
X114727939Y-118011905D01*
X114727939Y-118011905D02*
X114651748Y-117945238D01*
X114804129Y-116935714D02*
X114804129Y-116630952D01*
X114804129Y-116630952D02*
X114727939Y-116488095D01*
X114727939Y-116488095D02*
X114575558Y-116354762D01*
X114575558Y-116354762D02*
X114270796Y-116316666D01*
X114270796Y-116316666D02*
X113737462Y-116383333D01*
X113737462Y-116383333D02*
X113432700Y-116497619D01*
X113432700Y-116497619D02*
X113280320Y-116669047D01*
X113280320Y-116669047D02*
X113204129Y-116830952D01*
X113204129Y-116830952D02*
X113204129Y-117135714D01*
X113204129Y-117135714D02*
X113280320Y-117278571D01*
X113280320Y-117278571D02*
X113432700Y-117411905D01*
X113432700Y-117411905D02*
X113737462Y-117450000D01*
X113737462Y-117450000D02*
X114270796Y-117383333D01*
X114270796Y-117383333D02*
X114575558Y-117269047D01*
X114575558Y-117269047D02*
X114727939Y-117097619D01*
X114727939Y-117097619D02*
X114804129Y-116935714D01*
X113051748Y-114716667D02*
X113127939Y-114859524D01*
X113127939Y-114859524D02*
X113280320Y-114992857D01*
X113280320Y-114992857D02*
X113508891Y-115192857D01*
X113508891Y-115192857D02*
X113585081Y-115335715D01*
X113585081Y-115335715D02*
X113585081Y-115488095D01*
X113204129Y-115459524D02*
X113280320Y-115602381D01*
X113280320Y-115602381D02*
X113432700Y-115735715D01*
X113432700Y-115735715D02*
X113737462Y-115773810D01*
X113737462Y-115773810D02*
X114270796Y-115707143D01*
X114270796Y-115707143D02*
X114575558Y-115592857D01*
X114575558Y-115592857D02*
X114727939Y-115421429D01*
X114727939Y-115421429D02*
X114804129Y-115259524D01*
X114804129Y-115259524D02*
X114804129Y-114954762D01*
X114804129Y-114954762D02*
X114727939Y-114811905D01*
X114727939Y-114811905D02*
X114575558Y-114678572D01*
X114575558Y-114678572D02*
X114270796Y-114640476D01*
X114270796Y-114640476D02*
X113737462Y-114707143D01*
X113737462Y-114707143D02*
X113432700Y-114821429D01*
X113432700Y-114821429D02*
X113280320Y-114992857D01*
X113280320Y-114992857D02*
X113204129Y-115154762D01*
X113204129Y-115154762D02*
X113204129Y-115459524D01*
X114804129Y-113888096D02*
X113508891Y-114050001D01*
X113508891Y-114050001D02*
X113356510Y-113992858D01*
X113356510Y-113992858D02*
X113280320Y-113926191D01*
X113280320Y-113926191D02*
X113204129Y-113783334D01*
X113204129Y-113783334D02*
X113204129Y-113478572D01*
X113204129Y-113478572D02*
X113280320Y-113316667D01*
X113280320Y-113316667D02*
X113356510Y-113230953D01*
X113356510Y-113230953D02*
X113508891Y-113135715D01*
X113508891Y-113135715D02*
X114804129Y-112973810D01*
X113204129Y-112411906D02*
X114804129Y-112211906D01*
X113204129Y-110735715D02*
X113966034Y-111173810D01*
X113204129Y-111650001D02*
X114804129Y-111450001D01*
X114804129Y-111450001D02*
X114804129Y-110840477D01*
X114804129Y-110840477D02*
X114727939Y-110697620D01*
X114727939Y-110697620D02*
X114651748Y-110630953D01*
X114651748Y-110630953D02*
X114499367Y-110573810D01*
X114499367Y-110573810D02*
X114270796Y-110602382D01*
X114270796Y-110602382D02*
X114118415Y-110697620D01*
X114118415Y-110697620D02*
X114042224Y-110783334D01*
X114042224Y-110783334D02*
X113966034Y-110945239D01*
X113966034Y-110945239D02*
X113966034Y-111554763D01*
X113661272Y-110069049D02*
X113661272Y-109307144D01*
X113204129Y-110278572D02*
X114804129Y-109545239D01*
X114804129Y-109545239D02*
X113204129Y-109211906D01*
X113204129Y-108678572D02*
X114804129Y-108478572D01*
X114804129Y-108478572D02*
X113204129Y-107764286D01*
X113204129Y-107764286D02*
X114804129Y-107564286D01*
X113661272Y-107021430D02*
X113661272Y-106259525D01*
X113204129Y-107230953D02*
X114804129Y-106497620D01*
X114804129Y-106497620D02*
X113204129Y-106164287D01*
X114804129Y-104440476D02*
X113204129Y-104107143D01*
X113204129Y-104107143D02*
X114804129Y-103373810D01*
X113204129Y-102202381D02*
X113204129Y-103116666D01*
X113204129Y-102659524D02*
X114804129Y-102459524D01*
X114804129Y-102459524D02*
X114575558Y-102640476D01*
X114575558Y-102640476D02*
X114423177Y-102811905D01*
X114423177Y-102811905D02*
X114346986Y-102973809D01*
X112228219Y-114040477D02*
X112228219Y-114345239D01*
X112228219Y-114345239D02*
X112152029Y-114507143D01*
X112152029Y-114507143D02*
X112075838Y-114592858D01*
X112075838Y-114592858D02*
X111847267Y-114773810D01*
X111847267Y-114773810D02*
X111542505Y-114888096D01*
X111542505Y-114888096D02*
X110932981Y-114964286D01*
X110932981Y-114964286D02*
X110780600Y-114907143D01*
X110780600Y-114907143D02*
X110704410Y-114840477D01*
X110704410Y-114840477D02*
X110628219Y-114697620D01*
X110628219Y-114697620D02*
X110628219Y-114392858D01*
X110628219Y-114392858D02*
X110704410Y-114230953D01*
X110704410Y-114230953D02*
X110780600Y-114145239D01*
X110780600Y-114145239D02*
X110932981Y-114050000D01*
X110932981Y-114050000D02*
X111313933Y-114002381D01*
X111313933Y-114002381D02*
X111466314Y-114059524D01*
X111466314Y-114059524D02*
X111542505Y-114126191D01*
X111542505Y-114126191D02*
X111618695Y-114269048D01*
X111618695Y-114269048D02*
X111618695Y-114573810D01*
X111618695Y-114573810D02*
X111542505Y-114735715D01*
X111542505Y-114735715D02*
X111466314Y-114821429D01*
X111466314Y-114821429D02*
X111313933Y-114916667D01*
X110780600Y-112469048D02*
X110704410Y-112554762D01*
X110704410Y-112554762D02*
X110628219Y-112792857D01*
X110628219Y-112792857D02*
X110628219Y-112945238D01*
X110628219Y-112945238D02*
X110704410Y-113164286D01*
X110704410Y-113164286D02*
X110856790Y-113297619D01*
X110856790Y-113297619D02*
X111009171Y-113354762D01*
X111009171Y-113354762D02*
X111313933Y-113392857D01*
X111313933Y-113392857D02*
X111542505Y-113364286D01*
X111542505Y-113364286D02*
X111847267Y-113250000D01*
X111847267Y-113250000D02*
X111999648Y-113154762D01*
X111999648Y-113154762D02*
X112152029Y-112983333D01*
X112152029Y-112983333D02*
X112228219Y-112745238D01*
X112228219Y-112745238D02*
X112228219Y-112592857D01*
X112228219Y-112592857D02*
X112152029Y-112373810D01*
X112152029Y-112373810D02*
X112075838Y-112307143D01*
X110628219Y-110583333D02*
X112228219Y-110383333D01*
X110704410Y-109888095D02*
X110628219Y-109669047D01*
X110628219Y-109669047D02*
X110628219Y-109288095D01*
X110628219Y-109288095D02*
X110704410Y-109126190D01*
X110704410Y-109126190D02*
X110780600Y-109040476D01*
X110780600Y-109040476D02*
X110932981Y-108945237D01*
X110932981Y-108945237D02*
X111085362Y-108926190D01*
X111085362Y-108926190D02*
X111237743Y-108983333D01*
X111237743Y-108983333D02*
X111313933Y-109049999D01*
X111313933Y-109049999D02*
X111390124Y-109192857D01*
X111390124Y-109192857D02*
X111466314Y-109488095D01*
X111466314Y-109488095D02*
X111542505Y-109630952D01*
X111542505Y-109630952D02*
X111618695Y-109697618D01*
X111618695Y-109697618D02*
X111771076Y-109754761D01*
X111771076Y-109754761D02*
X111923457Y-109735714D01*
X111923457Y-109735714D02*
X112075838Y-109640476D01*
X112075838Y-109640476D02*
X112152029Y-109554761D01*
X112152029Y-109554761D02*
X112228219Y-109392857D01*
X112228219Y-109392857D02*
X112228219Y-109011904D01*
X112228219Y-109011904D02*
X112152029Y-108792857D01*
X111466314Y-108192856D02*
X111466314Y-107659523D01*
X110628219Y-107535713D02*
X110628219Y-108297618D01*
X110628219Y-108297618D02*
X112228219Y-108097618D01*
X112228219Y-108097618D02*
X112228219Y-107335713D01*
X112228219Y-106878570D02*
X112228219Y-105964285D01*
X110628219Y-106621428D02*
X112228219Y-106421428D01*
X108890404Y-112345238D02*
X108890404Y-112878571D01*
X108052309Y-112983333D02*
X109652309Y-112783333D01*
X109652309Y-112783333D02*
X109652309Y-112021428D01*
X108052309Y-111611904D02*
X109652309Y-111411904D01*
X108052309Y-110849999D02*
X109652309Y-110649999D01*
X109652309Y-110649999D02*
X108509452Y-110259523D01*
X108509452Y-110259523D02*
X109652309Y-109583332D01*
X109652309Y-109583332D02*
X108052309Y-109783332D01*
X108890404Y-108916666D02*
X108890404Y-108383333D01*
X108052309Y-108259523D02*
X108052309Y-109021428D01*
X108052309Y-109021428D02*
X109652309Y-108821428D01*
X109652309Y-108821428D02*
X109652309Y-108059523D01*
D12*
D13*
X187656944Y-125588346D02*
X187585516Y-125659774D01*
X187585516Y-125659774D02*
X187514087Y-125874060D01*
X187514087Y-125874060D02*
X187514087Y-126016917D01*
X187514087Y-126016917D02*
X187585516Y-126231203D01*
X187585516Y-126231203D02*
X187728373Y-126374060D01*
X187728373Y-126374060D02*
X187871230Y-126445489D01*
X187871230Y-126445489D02*
X188156944Y-126516917D01*
X188156944Y-126516917D02*
X188371230Y-126516917D01*
X188371230Y-126516917D02*
X188656944Y-126445489D01*
X188656944Y-126445489D02*
X188799801Y-126374060D01*
X188799801Y-126374060D02*
X188942658Y-126231203D01*
X188942658Y-126231203D02*
X189014087Y-126016917D01*
X189014087Y-126016917D02*
X189014087Y-125874060D01*
X189014087Y-125874060D02*
X188942658Y-125659774D01*
X188942658Y-125659774D02*
X188871230Y-125588346D01*
X189014087Y-124659774D02*
X189014087Y-124374060D01*
X189014087Y-124374060D02*
X188942658Y-124231203D01*
X188942658Y-124231203D02*
X188799801Y-124088346D01*
X188799801Y-124088346D02*
X188514087Y-124016917D01*
X188514087Y-124016917D02*
X188014087Y-124016917D01*
X188014087Y-124016917D02*
X187728373Y-124088346D01*
X187728373Y-124088346D02*
X187585516Y-124231203D01*
X187585516Y-124231203D02*
X187514087Y-124374060D01*
X187514087Y-124374060D02*
X187514087Y-124659774D01*
X187514087Y-124659774D02*
X187585516Y-124802632D01*
X187585516Y-124802632D02*
X187728373Y-124945489D01*
X187728373Y-124945489D02*
X188014087Y-125016917D01*
X188014087Y-125016917D02*
X188514087Y-125016917D01*
X188514087Y-125016917D02*
X188799801Y-124945489D01*
X188799801Y-124945489D02*
X188942658Y-124802632D01*
X188942658Y-124802632D02*
X189014087Y-124659774D01*
X187371230Y-122374060D02*
X187442658Y-122516917D01*
X187442658Y-122516917D02*
X187585516Y-122659774D01*
X187585516Y-122659774D02*
X187799801Y-122874060D01*
X187799801Y-122874060D02*
X187871230Y-123016917D01*
X187871230Y-123016917D02*
X187871230Y-123159774D01*
X187514087Y-123088345D02*
X187585516Y-123231203D01*
X187585516Y-123231203D02*
X187728373Y-123374060D01*
X187728373Y-123374060D02*
X188014087Y-123445488D01*
X188014087Y-123445488D02*
X188514087Y-123445488D01*
X188514087Y-123445488D02*
X188799801Y-123374060D01*
X188799801Y-123374060D02*
X188942658Y-123231203D01*
X188942658Y-123231203D02*
X189014087Y-123088345D01*
X189014087Y-123088345D02*
X189014087Y-122802631D01*
X189014087Y-122802631D02*
X188942658Y-122659774D01*
X188942658Y-122659774D02*
X188799801Y-122516917D01*
X188799801Y-122516917D02*
X188514087Y-122445488D01*
X188514087Y-122445488D02*
X188014087Y-122445488D01*
X188014087Y-122445488D02*
X187728373Y-122516917D01*
X187728373Y-122516917D02*
X187585516Y-122659774D01*
X187585516Y-122659774D02*
X187514087Y-122802631D01*
X187514087Y-122802631D02*
X187514087Y-123088345D01*
X189014087Y-121802631D02*
X187799801Y-121802631D01*
X187799801Y-121802631D02*
X187656944Y-121731202D01*
X187656944Y-121731202D02*
X187585516Y-121659774D01*
X187585516Y-121659774D02*
X187514087Y-121516916D01*
X187514087Y-121516916D02*
X187514087Y-121231202D01*
X187514087Y-121231202D02*
X187585516Y-121088345D01*
X187585516Y-121088345D02*
X187656944Y-121016916D01*
X187656944Y-121016916D02*
X187799801Y-120945488D01*
X187799801Y-120945488D02*
X189014087Y-120945488D01*
X187514087Y-120231202D02*
X189014087Y-120231202D01*
X187514087Y-118659773D02*
X188228373Y-119159773D01*
X187514087Y-119516916D02*
X189014087Y-119516916D01*
X189014087Y-119516916D02*
X189014087Y-118945487D01*
X189014087Y-118945487D02*
X188942658Y-118802630D01*
X188942658Y-118802630D02*
X188871230Y-118731201D01*
X188871230Y-118731201D02*
X188728373Y-118659773D01*
X188728373Y-118659773D02*
X188514087Y-118659773D01*
X188514087Y-118659773D02*
X188371230Y-118731201D01*
X188371230Y-118731201D02*
X188299801Y-118802630D01*
X188299801Y-118802630D02*
X188228373Y-118945487D01*
X188228373Y-118945487D02*
X188228373Y-119516916D01*
X187942658Y-118088344D02*
X187942658Y-117374059D01*
X187514087Y-118231201D02*
X189014087Y-117731201D01*
X189014087Y-117731201D02*
X187514087Y-117231201D01*
X187514087Y-116731202D02*
X189014087Y-116731202D01*
X189014087Y-116731202D02*
X187514087Y-115874059D01*
X187514087Y-115874059D02*
X189014087Y-115874059D01*
X187942658Y-115231201D02*
X187942658Y-114516916D01*
X187514087Y-115374058D02*
X189014087Y-114874058D01*
X189014087Y-114874058D02*
X187514087Y-114374058D01*
X187514087Y-111945487D02*
X187514087Y-112802630D01*
X187514087Y-112374059D02*
X189014087Y-112374059D01*
X189014087Y-112374059D02*
X188799801Y-112516916D01*
X188799801Y-112516916D02*
X188656944Y-112659773D01*
X188656944Y-112659773D02*
X188585516Y-112802630D01*
X185099171Y-126445489D02*
X186599171Y-126445489D01*
X186027742Y-126445489D02*
X186099171Y-126302632D01*
X186099171Y-126302632D02*
X186099171Y-126016917D01*
X186099171Y-126016917D02*
X186027742Y-125874060D01*
X186027742Y-125874060D02*
X185956314Y-125802632D01*
X185956314Y-125802632D02*
X185813457Y-125731203D01*
X185813457Y-125731203D02*
X185384885Y-125731203D01*
X185384885Y-125731203D02*
X185242028Y-125802632D01*
X185242028Y-125802632D02*
X185170600Y-125874060D01*
X185170600Y-125874060D02*
X185099171Y-126016917D01*
X185099171Y-126016917D02*
X185099171Y-126302632D01*
X185099171Y-126302632D02*
X185170600Y-126445489D01*
X186099171Y-125231203D02*
X185099171Y-124874060D01*
X186099171Y-124516917D02*
X185099171Y-124874060D01*
X185099171Y-124874060D02*
X184742028Y-125016917D01*
X184742028Y-125016917D02*
X184670600Y-125088346D01*
X184670600Y-125088346D02*
X184599171Y-125231203D01*
X186599171Y-123016917D02*
X186599171Y-122159775D01*
X185099171Y-122588346D02*
X186599171Y-122588346D01*
X185884885Y-121659775D02*
X185884885Y-121159775D01*
X185099171Y-120945489D02*
X185099171Y-121659775D01*
X185099171Y-121659775D02*
X186599171Y-121659775D01*
X186599171Y-121659775D02*
X186599171Y-120945489D01*
X185527742Y-120374060D02*
X185527742Y-119659775D01*
X185099171Y-120516917D02*
X186599171Y-120016917D01*
X186599171Y-120016917D02*
X185099171Y-119516917D01*
X185099171Y-119016918D02*
X186599171Y-119016918D01*
X186599171Y-119016918D02*
X185527742Y-118516918D01*
X185527742Y-118516918D02*
X186599171Y-118016918D01*
X186599171Y-118016918D02*
X185099171Y-118016918D01*
X186599171Y-117445489D02*
X186599171Y-116516917D01*
X186599171Y-116516917D02*
X186027742Y-117016917D01*
X186027742Y-117016917D02*
X186027742Y-116802632D01*
X186027742Y-116802632D02*
X185956314Y-116659775D01*
X185956314Y-116659775D02*
X185884885Y-116588346D01*
X185884885Y-116588346D02*
X185742028Y-116516917D01*
X185742028Y-116516917D02*
X185384885Y-116516917D01*
X185384885Y-116516917D02*
X185242028Y-116588346D01*
X185242028Y-116588346D02*
X185170600Y-116659775D01*
X185170600Y-116659775D02*
X185099171Y-116802632D01*
X185099171Y-116802632D02*
X185099171Y-117231203D01*
X185099171Y-117231203D02*
X185170600Y-117374060D01*
X185170600Y-117374060D02*
X185242028Y-117445489D01*
D14*
%TO.P,R5.1k,1*%
%TO.N,pin38*%
X166100000Y-113190000D03*
D15*
%TO.P,R5.1k,2*%
%TO.N,VCC*%
X166100000Y-120810000D03*
%TD*%
D16*
%TO.P,Boot,4*%
%TO.N,pin38*%
X136135000Y-57650000D03*
%TO.P,Boot,3*%
X129635000Y-57650000D03*
%TO.P,Boot,2*%
%TO.N,Earth*%
X136135000Y-53150000D03*
D17*
%TO.P,Boot,1*%
X129635000Y-53150000D03*
%TD*%
%TO.P,Reset,1*%
%TO.N,Net-(U1-Vpp{slash}~{MCLR}{slash}RE3)*%
X120950000Y-57700000D03*
D16*
%TO.P,Reset,2*%
X114450000Y-57700000D03*
%TO.P,Reset,3*%
%TO.N,Earth*%
X120950000Y-53200000D03*
%TO.P,Reset,4*%
X114450000Y-53200000D03*
%TD*%
D14*
%TO.P,R5.1k,1*%
%TO.N,Net-(U1-Vpp{slash}~{MCLR}{slash}RE3)*%
X160450000Y-57910000D03*
D15*
%TO.P,R5.1k,2*%
%TO.N,VCC*%
X160450000Y-50290000D03*
%TD*%
D18*
%TO.P,J3,1,Pin_1*%
%TO.N,pin2*%
X123800000Y-65210000D03*
D19*
%TO.P,J3,2,Pin_2*%
%TO.N,pin3*%
X123800000Y-67750000D03*
%TO.P,J3,3,Pin_3*%
%TO.N,pin4*%
X123800000Y-70290000D03*
%TO.P,J3,4,Pin_4*%
%TO.N,pin5*%
X123800000Y-72830000D03*
%TO.P,J3,5,Pin_5*%
%TO.N,pin7*%
X123800000Y-75370000D03*
%TO.P,J3,6,Pin_6*%
%TO.N,pin8*%
X123800000Y-77910000D03*
%TO.P,J3,7,Pin_7*%
%TO.N,pin9*%
X123800000Y-80450000D03*
%TO.P,J3,8,Pin_8*%
%TO.N,pin10*%
X123800000Y-82990000D03*
%TO.P,J3,9,Pin_9*%
%TO.N,pin15*%
X123800000Y-85530000D03*
%TO.P,J3,10,Pin_10*%
%TO.N,pin16*%
X123800000Y-88070000D03*
%TO.P,J3,11,Pin_11*%
%TO.N,pin17*%
X123800000Y-90610000D03*
%TO.P,J3,12,Pin_12*%
%TO.N,pin20*%
X123800000Y-93150000D03*
%TO.P,J3,13,Pin_13*%
%TO.N,pin19*%
X123800000Y-95690000D03*
%TD*%
D18*
%TO.P,VCC,1,Pin_1*%
%TO.N,VCC*%
X109300000Y-65050000D03*
D19*
%TO.P,VCC,2,Pin_2*%
X109300000Y-67590000D03*
%TO.P,VCC,3,Pin_3*%
X109300000Y-70130000D03*
%TO.P,VCC,4,Pin_4*%
X109300000Y-72670000D03*
%TO.P,VCC,5,Pin_5*%
X109300000Y-75210000D03*
%TO.P,VCC,6,Pin_6*%
X109300000Y-77750000D03*
%TO.P,VCC,7,Pin_7*%
X109300000Y-80290000D03*
%TO.P,VCC,8,Pin_8*%
X109300000Y-82830000D03*
%TO.P,VCC,9,Pin_9*%
X109300000Y-85370000D03*
%TO.P,VCC,10,Pin_10*%
X109300000Y-87910000D03*
%TO.P,VCC,11,Pin_11*%
X109300000Y-90450000D03*
%TO.P,VCC,12,Pin_12*%
X109300000Y-92990000D03*
%TO.P,VCC,13,Pin_13*%
X109300000Y-95530000D03*
%TD*%
D14*
%TO.P,15pF,1*%
%TO.N,Earth*%
X130400000Y-102850000D03*
%TO.P,15pF,2*%
%TO.N,Net-(U1-OSC1{slash}CLKI)*%
X132900000Y-102850000D03*
%TD*%
D18*
%TO.P,VCC,1,Pin_1*%
%TO.N,VCC*%
X184000000Y-65120000D03*
D19*
%TO.P,VCC,2,Pin_2*%
X184000000Y-67660000D03*
%TO.P,VCC,3,Pin_3*%
X184000000Y-70200000D03*
%TO.P,VCC,4,Pin_4*%
X184000000Y-72740000D03*
%TO.P,VCC,5,Pin_5*%
X184000000Y-75280000D03*
%TO.P,VCC,6,Pin_6*%
X184000000Y-77820000D03*
%TO.P,VCC,7,Pin_7*%
X184000000Y-80360000D03*
%TO.P,VCC,8,Pin_8*%
X184000000Y-82900000D03*
%TO.P,VCC,9,Pin_9*%
X184000000Y-85440000D03*
%TO.P,VCC,10,Pin_10*%
X184000000Y-87980000D03*
%TO.P,VCC,11,Pin_11*%
X184000000Y-90520000D03*
%TO.P,VCC,12,Pin_12*%
X184000000Y-93060000D03*
%TO.P,VCC,13,Pin_13*%
X184000000Y-95600000D03*
%TO.P,VCC,14,Pin_14*%
X184000000Y-98140000D03*
%TO.P,VCC,15,Pin_15*%
X184000000Y-100680000D03*
%TO.P,VCC,16,Pin_16*%
X184000000Y-103220000D03*
%TD*%
D20*
%TO.P,C220nF,1*%
%TO.N,Net-(U1-VUSB)*%
X129982380Y-124550000D03*
D14*
%TO.P,C220nF,2*%
%TO.N,Earth*%
X127482380Y-124550000D03*
%TD*%
D20*
%TO.P,PIC18F4550,1,Vpp/~{MCLR}/RE3*%
%TO.N,Net-(U1-Vpp{slash}~{MCLR}{slash}RE3)*%
X141760000Y-64950000D03*
D15*
%TO.P,PIC18F4550,2,RA0/AN0*%
%TO.N,pin2*%
X141760000Y-67490000D03*
%TO.P,PIC18F4550,3,RA1/AN1*%
%TO.N,pin3*%
X141760000Y-70030000D03*
%TO.P,PIC18F4550,4,RA2/AN2/Vref-/CVref*%
%TO.N,pin4*%
X141760000Y-72570000D03*
%TO.P,PIC18F4550,5,RA3/AN3/Vref+*%
%TO.N,pin5*%
X141760000Y-75110000D03*
%TO.P,PIC18F4550,6,RA4/T0CKI/C1OUT/RCV*%
%TO.N,Net-(U1-RA4{slash}T0CKI{slash}C1OUT{slash}RCV)*%
X141760000Y-77650000D03*
%TO.P,PIC18F4550,7,RA5/AN4/~{SS}/HLVDIN/C2OUT*%
%TO.N,pin7*%
X141760000Y-80190000D03*
%TO.P,PIC18F4550,8,CK1SPP/AN5/RE0*%
%TO.N,pin8*%
X141760000Y-82730000D03*
%TO.P,PIC18F4550,9,CK2SPP/AN6/RE1*%
%TO.N,pin9*%
X141760000Y-85270000D03*
%TO.P,PIC18F4550,10,OESPP/AN7/RE2*%
%TO.N,pin10*%
X141760000Y-87810000D03*
%TO.P,PIC18F4550,11,VDD*%
%TO.N,VCC*%
X141760000Y-90350000D03*
%TO.P,PIC18F4550,12,VSS*%
%TO.N,Earth*%
X141760000Y-92890000D03*
%TO.P,PIC18F4550,13,OSC1/CLKI*%
%TO.N,Net-(U1-OSC1{slash}CLKI)*%
X141760000Y-95430000D03*
%TO.P,PIC18F4550,14,RA6/OSC2/CLKO*%
%TO.N,Net-(U1-RA6{slash}OSC2{slash}CLKO)*%
X141760000Y-97970000D03*
%TO.P,PIC18F4550,15,T1OSO/T13CKI/RC0*%
%TO.N,pin15*%
X141760000Y-100510000D03*
%TO.P,PIC18F4550,16,~{UOE}/CCP2/T1OSI/RC1*%
%TO.N,pin16*%
X141760000Y-103050000D03*
%TO.P,PIC18F4550,17,P1A/CCP1/RC2*%
%TO.N,pin17*%
X141760000Y-105590000D03*
%TO.P,PIC18F4550,18,VUSB*%
%TO.N,Net-(U1-VUSB)*%
X141760000Y-108130000D03*
%TO.P,PIC18F4550,19,SPP0/RD0*%
%TO.N,pin19*%
X141760000Y-110670000D03*
%TO.P,PIC18F4550,20,SPP1/RD1*%
%TO.N,pin20*%
X141760000Y-113210000D03*
%TO.P,PIC18F4550,21,SPP2/RD2*%
%TO.N,pin21*%
X157000000Y-113210000D03*
%TO.P,PIC18F4550,22,SPP3/RD3*%
%TO.N,pin22*%
X157000000Y-110670000D03*
%TO.P,PIC18F4550,23,VM/D-/RC4*%
%TO.N,Net-(J1-D-)*%
X157000000Y-108130000D03*
%TO.P,PIC18F4550,24,VP/D+/RC5*%
%TO.N,Net-(J1-D+)*%
X157000000Y-105590000D03*
%TO.P,PIC18F4550,25,TX/CK/RC6*%
%TO.N,pin25*%
X157000000Y-103050000D03*
%TO.P,PIC18F4550,26,SDO/RX/DT/RC7*%
%TO.N,pin26*%
X157000000Y-100510000D03*
%TO.P,PIC18F4550,27,SPP4/RD4*%
%TO.N,pin27*%
X157000000Y-97970000D03*
%TO.P,PIC18F4550,28,P1B/SPP5/RD5*%
%TO.N,pin28*%
X157000000Y-95430000D03*
%TO.P,PIC18F4550,29,P1C/SPP6/RD6*%
%TO.N,pin29*%
X157000000Y-92890000D03*
%TO.P,PIC18F4550,30,P1D/SPP7/RD7*%
%TO.N,pin30*%
X157000000Y-90350000D03*
%TO.P,PIC18F4550,31,VSS*%
%TO.N,Earth*%
X157000000Y-87810000D03*
%TO.P,PIC18F4550,32,VDD*%
%TO.N,VCC*%
X157000000Y-85270000D03*
%TO.P,PIC18F4550,33,RB0/AN12/INT0/FLT0/SDI/SDA*%
%TO.N,pin33*%
X157000000Y-82730000D03*
%TO.P,PIC18F4550,34,RB1/AN10/INT1/SCK/SCL*%
%TO.N,pin34*%
X157000000Y-80190000D03*
%TO.P,PIC18F4550,35,RB2/AN8/INT2/VMO*%
%TO.N,pin35*%
X157000000Y-77650000D03*
%TO.P,PIC18F4550,36,RB3/AN9/CCP2/VPO*%
%TO.N,pin36*%
X157000000Y-75110000D03*
%TO.P,PIC18F4550,37,RB4/AN11/KBI0/CSSPP*%
%TO.N,pin37*%
X157000000Y-72570000D03*
%TO.P,PIC18F4550,38,RB5/KBI1/PGM*%
%TO.N,pin38*%
X157000000Y-70030000D03*
%TO.P,PIC18F4550,39,RB6/KBI2/PGC*%
%TO.N,pin39*%
X157000000Y-67490000D03*
%TO.P,PIC18F4550,40,RB7/KBI3/PGD*%
%TO.N,pin40*%
X157000000Y-64950000D03*
%TD*%
D21*
%TO.P,LEDR,1,K*%
%TO.N,Net-(D2-K)*%
X144620000Y-57940000D03*
D22*
%TO.P,LEDR,2,A*%
%TO.N,VCC*%
X142080000Y-57940000D03*
%TD*%
D18*
%TO.P,J4,1,Pin_1*%
%TO.N,pin2*%
X128450000Y-65210000D03*
D19*
%TO.P,J4,2,Pin_2*%
%TO.N,pin3*%
X128450000Y-67750000D03*
%TO.P,J4,3,Pin_3*%
%TO.N,pin4*%
X128450000Y-70290000D03*
%TO.P,J4,4,Pin_4*%
%TO.N,pin5*%
X128450000Y-72830000D03*
%TO.P,J4,5,Pin_5*%
%TO.N,pin7*%
X128450000Y-75370000D03*
%TO.P,J4,6,Pin_6*%
%TO.N,pin8*%
X128450000Y-77910000D03*
%TO.P,J4,7,Pin_7*%
%TO.N,pin9*%
X128450000Y-80450000D03*
%TO.P,J4,8,Pin_8*%
%TO.N,pin10*%
X128450000Y-82990000D03*
%TO.P,J4,9,Pin_9*%
%TO.N,pin15*%
X128450000Y-85530000D03*
%TO.P,J4,10,Pin_10*%
%TO.N,pin16*%
X128450000Y-88070000D03*
%TO.P,J4,11,Pin_11*%
%TO.N,pin17*%
X128450000Y-90610000D03*
%TO.P,J4,12,Pin_12*%
%TO.N,pin20*%
X128450000Y-93150000D03*
%TO.P,J4,13,Pin_13*%
%TO.N,pin19*%
X128450000Y-95690000D03*
%TD*%
D20*
%TO.P,USB,1,VBUS*%
%TO.N,VCC*%
X150700000Y-124690000D03*
D14*
%TO.P,USB,2,D-*%
%TO.N,Net-(J1-D-)*%
X148200000Y-124690000D03*
%TO.P,USB,3,D+*%
%TO.N,Net-(J1-D+)*%
X148200000Y-126690000D03*
%TO.P,USB,4,GND*%
%TO.N,Earth*%
X150700000Y-126690000D03*
D23*
%TO.P,USB,5,Shield*%
X155450000Y-129550000D03*
X143450000Y-129550000D03*
%TD*%
D24*
%TO.P,T-block,1,Pin_1*%
%TO.N,Earth*%
X171150000Y-134700000D03*
D25*
%TO.P,T-block,2,Pin_2*%
%TO.N,VCC*%
X176150000Y-134700000D03*
%TD*%
D18*
%TO.P,J6,1,Pin_1*%
%TO.N,pin40*%
X165800000Y-65150000D03*
D19*
%TO.P,J6,2,Pin_2*%
%TO.N,pin39*%
X165800000Y-67690000D03*
%TO.P,J6,3,Pin_3*%
%TO.N,pin38*%
X165800000Y-70230000D03*
%TO.P,J6,4,Pin_4*%
%TO.N,pin37*%
X165800000Y-72770000D03*
%TO.P,J6,5,Pin_5*%
%TO.N,pin36*%
X165800000Y-75310000D03*
%TO.P,J6,6,Pin_6*%
%TO.N,pin35*%
X165800000Y-77850000D03*
%TO.P,J6,7,Pin_7*%
%TO.N,pin34*%
X165800000Y-80390000D03*
%TO.P,J6,8,Pin_8*%
%TO.N,pin33*%
X165800000Y-82930000D03*
%TO.P,J6,9,Pin_9*%
%TO.N,pin30*%
X165800000Y-85470000D03*
%TO.P,J6,10,Pin_10*%
%TO.N,pin29*%
X165800000Y-88010000D03*
%TO.P,J6,11,Pin_11*%
%TO.N,pin28*%
X165800000Y-90550000D03*
%TO.P,J6,12,Pin_12*%
%TO.N,pin27*%
X165800000Y-93090000D03*
%TO.P,J6,13,Pin_13*%
%TO.N,pin26*%
X165800000Y-95630000D03*
%TO.P,J6,14,Pin_14*%
%TO.N,pin25*%
X165800000Y-98170000D03*
%TO.P,J6,15,Pin_15*%
%TO.N,pin22*%
X165800000Y-100710000D03*
%TO.P,J6,16,Pin_16*%
%TO.N,pin21*%
X165800000Y-103250000D03*
%TD*%
D21*
%TO.P,LEDV,1,K*%
%TO.N,Net-(D1-K)*%
X144680000Y-50090000D03*
D22*
%TO.P,LEDV,2,A*%
%TO.N,VCC*%
X142140000Y-50090000D03*
%TD*%
D14*
%TO.P,R470,1*%
%TO.N,Net-(U1-RA4{slash}T0CKI{slash}C1OUT{slash}RCV)*%
X156190000Y-50040000D03*
D15*
%TO.P,R470,2*%
%TO.N,Net-(D1-K)*%
X148570000Y-50040000D03*
%TD*%
D14*
%TO.P,15pF,1*%
%TO.N,Net-(U1-RA6{slash}OSC2{slash}CLKO)*%
X123450000Y-102800000D03*
%TO.P,15pF,2*%
%TO.N,Earth*%
X125950000Y-102800000D03*
%TD*%
D18*
%TO.P,GND,1,Pin_1*%
%TO.N,Earth*%
X113950000Y-65050000D03*
D19*
%TO.P,GND,2,Pin_2*%
X113950000Y-67590000D03*
%TO.P,GND,3,Pin_3*%
X113950000Y-70130000D03*
%TO.P,GND,4,Pin_4*%
X113950000Y-72670000D03*
%TO.P,GND,5,Pin_5*%
X113950000Y-75210000D03*
%TO.P,GND,6,Pin_6*%
X113950000Y-77750000D03*
%TO.P,GND,7,Pin_7*%
X113950000Y-80290000D03*
%TO.P,GND,8,Pin_8*%
X113950000Y-82830000D03*
%TO.P,GND,9,Pin_9*%
X113950000Y-85370000D03*
%TO.P,GND,10,Pin_10*%
X113950000Y-87910000D03*
%TO.P,GND,11,Pin_11*%
X113950000Y-90450000D03*
%TO.P,GND,12,Pin_12*%
X113950000Y-92990000D03*
%TO.P,GND,13,Pin_13*%
X113950000Y-95530000D03*
%TD*%
D14*
%TO.P,R470,1*%
%TO.N,Net-(D2-K)*%
X149100000Y-57900000D03*
D15*
%TO.P,R470,2*%
%TO.N,Earth*%
X156720000Y-57900000D03*
%TD*%
D26*
%TO.P,20MHz,1,1*%
%TO.N,Net-(U1-RA6{slash}OSC2{slash}CLKO)*%
X122400000Y-112750000D03*
%TO.P,20MHz,2,2*%
%TO.N,Net-(U1-OSC1{slash}CLKI)*%
X134740000Y-112750000D03*
%TD*%
D18*
%TO.P,J8,1,Pin_1*%
%TO.N,pin40*%
X174900000Y-65150000D03*
D19*
%TO.P,J8,2,Pin_2*%
%TO.N,pin39*%
X174900000Y-67690000D03*
%TO.P,J8,3,Pin_3*%
%TO.N,pin38*%
X174900000Y-70230000D03*
%TO.P,J8,4,Pin_4*%
%TO.N,pin37*%
X174900000Y-72770000D03*
%TO.P,J8,5,Pin_5*%
%TO.N,pin36*%
X174900000Y-75310000D03*
%TO.P,J8,6,Pin_6*%
%TO.N,pin35*%
X174900000Y-77850000D03*
%TO.P,J8,7,Pin_7*%
%TO.N,pin34*%
X174900000Y-80390000D03*
%TO.P,J8,8,Pin_8*%
%TO.N,pin33*%
X174900000Y-82930000D03*
%TO.P,J8,9,Pin_9*%
%TO.N,pin30*%
X174900000Y-85470000D03*
%TO.P,J8,10,Pin_10*%
%TO.N,pin29*%
X174900000Y-88010000D03*
%TO.P,J8,11,Pin_11*%
%TO.N,pin28*%
X174900000Y-90550000D03*
%TO.P,J8,12,Pin_12*%
%TO.N,pin27*%
X174900000Y-93090000D03*
%TO.P,J8,13,Pin_13*%
%TO.N,pin26*%
X174900000Y-95630000D03*
%TO.P,J8,14,Pin_14*%
%TO.N,pin25*%
X174900000Y-98170000D03*
%TO.P,J8,15,Pin_15*%
%TO.N,pin22*%
X174900000Y-100710000D03*
%TO.P,J8,16,Pin_16*%
%TO.N,pin21*%
X174900000Y-103250000D03*
%TD*%
D18*
%TO.P,J5,1,Pin_1*%
%TO.N,pin2*%
X133100000Y-65210000D03*
D19*
%TO.P,J5,2,Pin_2*%
%TO.N,pin3*%
X133100000Y-67750000D03*
%TO.P,J5,3,Pin_3*%
%TO.N,pin4*%
X133100000Y-70290000D03*
%TO.P,J5,4,Pin_4*%
%TO.N,pin5*%
X133100000Y-72830000D03*
%TO.P,J5,5,Pin_5*%
%TO.N,pin7*%
X133100000Y-75370000D03*
%TO.P,J5,6,Pin_6*%
%TO.N,pin8*%
X133100000Y-77910000D03*
%TO.P,J5,7,Pin_7*%
%TO.N,pin9*%
X133100000Y-80450000D03*
%TO.P,J5,8,Pin_8*%
%TO.N,pin10*%
X133100000Y-82990000D03*
%TO.P,J5,9,Pin_9*%
%TO.N,pin15*%
X133100000Y-85530000D03*
%TO.P,J5,10,Pin_10*%
%TO.N,pin16*%
X133100000Y-88070000D03*
%TO.P,J5,11,Pin_11*%
%TO.N,pin17*%
X133100000Y-90610000D03*
%TO.P,J5,12,Pin_12*%
%TO.N,pin20*%
X133100000Y-93150000D03*
%TO.P,J5,13,Pin_13*%
%TO.N,pin19*%
X133100000Y-95690000D03*
%TD*%
D18*
%TO.P,J7,1,Pin_1*%
%TO.N,pin40*%
X170150000Y-65150000D03*
D19*
%TO.P,J7,2,Pin_2*%
%TO.N,pin39*%
X170150000Y-67690000D03*
%TO.P,J7,3,Pin_3*%
%TO.N,pin38*%
X170150000Y-70230000D03*
%TO.P,J7,4,Pin_4*%
%TO.N,pin37*%
X170150000Y-72770000D03*
%TO.P,J7,5,Pin_5*%
%TO.N,pin36*%
X170150000Y-75310000D03*
%TO.P,J7,6,Pin_6*%
%TO.N,pin35*%
X170150000Y-77850000D03*
%TO.P,J7,7,Pin_7*%
%TO.N,pin34*%
X170150000Y-80390000D03*
%TO.P,J7,8,Pin_8*%
%TO.N,pin33*%
X170150000Y-82930000D03*
%TO.P,J7,9,Pin_9*%
%TO.N,pin30*%
X170150000Y-85470000D03*
%TO.P,J7,10,Pin_10*%
%TO.N,pin29*%
X170150000Y-88010000D03*
%TO.P,J7,11,Pin_11*%
%TO.N,pin28*%
X170150000Y-90550000D03*
%TO.P,J7,12,Pin_12*%
%TO.N,pin27*%
X170150000Y-93090000D03*
%TO.P,J7,13,Pin_13*%
%TO.N,pin26*%
X170150000Y-95630000D03*
%TO.P,J7,14,Pin_14*%
%TO.N,pin25*%
X170150000Y-98170000D03*
%TO.P,J7,15,Pin_15*%
%TO.N,pin22*%
X170150000Y-100710000D03*
%TO.P,J7,16,Pin_16*%
%TO.N,pin21*%
X170150000Y-103250000D03*
%TD*%
D18*
%TO.P,GND,1,Pin_1*%
%TO.N,Earth*%
X188650000Y-65120000D03*
D19*
%TO.P,GND,2,Pin_2*%
X188650000Y-67660000D03*
%TO.P,GND,3,Pin_3*%
X188650000Y-70200000D03*
%TO.P,GND,4,Pin_4*%
X188650000Y-72740000D03*
%TO.P,GND,5,Pin_5*%
X188650000Y-75280000D03*
%TO.P,GND,6,Pin_6*%
X188650000Y-77820000D03*
%TO.P,GND,7,Pin_7*%
X188650000Y-80360000D03*
%TO.P,GND,8,Pin_8*%
X188650000Y-82900000D03*
%TO.P,GND,9,Pin_9*%
X188650000Y-85440000D03*
%TO.P,GND,10,Pin_10*%
X188650000Y-87980000D03*
%TO.P,GND,11,Pin_11*%
X188650000Y-90520000D03*
%TO.P,GND,12,Pin_12*%
X188650000Y-93060000D03*
%TO.P,GND,13,Pin_13*%
X188650000Y-95600000D03*
%TO.P,GND,14,Pin_14*%
X188650000Y-98140000D03*
%TO.P,GND,15,Pin_15*%
X188650000Y-100680000D03*
%TO.P,GND,16,Pin_16*%
X188650000Y-103220000D03*
%TD*%
D27*
%TO.N,Earth*%
X171150000Y-120720000D02*
X171150000Y-134700000D01*
X188650000Y-103220000D02*
X171150000Y-120720000D01*
%TO.N,pin38*%
X136135000Y-57650000D02*
X129635000Y-57650000D01*
X139000000Y-54785000D02*
X136135000Y-57650000D01*
X143500000Y-43750000D02*
X139000000Y-48250000D01*
X139000000Y-48250000D02*
X139000000Y-54785000D01*
X179800000Y-56300000D02*
X167250000Y-43750000D01*
X167250000Y-43750000D02*
X143500000Y-43750000D01*
X174900000Y-70230000D02*
X179800000Y-65330000D01*
X179800000Y-65330000D02*
X179800000Y-56300000D01*
%TO.N,Net-(U1-Vpp{slash}~{MCLR}{slash}RE3)*%
X138110000Y-61300000D02*
X141760000Y-64950000D01*
X121650000Y-61300000D02*
X138110000Y-61300000D01*
X120950000Y-60600000D02*
X121650000Y-61300000D01*
X120950000Y-57700000D02*
X120950000Y-60600000D01*
%TO.N,Earth*%
X110700000Y-61800000D02*
X113950000Y-65050000D01*
X110700000Y-55250000D02*
X110700000Y-61800000D01*
X112750000Y-53200000D02*
X110700000Y-55250000D01*
X114450000Y-53200000D02*
X112750000Y-53200000D01*
%TO.N,pin38*%
X174860000Y-113190000D02*
X166100000Y-113190000D01*
X179400000Y-108650000D02*
X174860000Y-113190000D01*
X179400000Y-74730000D02*
X179400000Y-108650000D01*
X174900000Y-70230000D02*
X179400000Y-74730000D01*
%TO.N,Net-(U1-OSC1{slash}CLKI)*%
X134740000Y-112750000D02*
X131900000Y-109910000D01*
X131900000Y-109910000D02*
X131900000Y-103850000D01*
X141760000Y-95430000D02*
X134340000Y-102850000D01*
X134340000Y-102850000D02*
X132900000Y-102850000D01*
X131900000Y-103850000D02*
X132900000Y-102850000D01*
%TO.N,Earth*%
X131300000Y-98150000D02*
X130400000Y-99050000D01*
X129722500Y-129522500D02*
X127482380Y-127282380D01*
X146840000Y-87810000D02*
X141760000Y-92890000D01*
X136500000Y-98150000D02*
X131300000Y-98150000D01*
X155450000Y-129522500D02*
X152617500Y-126690000D01*
X157000000Y-87810000D02*
X146840000Y-87810000D01*
X123750000Y-100600000D02*
X125950000Y-102800000D01*
X121400000Y-100600000D02*
X123750000Y-100600000D01*
D28*
X126000000Y-102850000D02*
X125950000Y-102800000D01*
X130350000Y-102800000D02*
X130400000Y-102850000D01*
D27*
X130400000Y-102850000D02*
X126000000Y-102850000D01*
X141760000Y-92890000D02*
X136500000Y-98150000D01*
X119450000Y-126450000D02*
X119450000Y-102550000D01*
X139672500Y-133300000D02*
X126300000Y-133300000D01*
X126150000Y-133150000D02*
X119450000Y-126450000D01*
X143450000Y-129522500D02*
X129722500Y-129522500D01*
X130400000Y-99050000D02*
X130400000Y-102850000D01*
X143450000Y-129522500D02*
X155450000Y-129522500D01*
X119450000Y-102550000D02*
X121400000Y-100600000D01*
X143450000Y-129522500D02*
X139672500Y-133300000D01*
X126300000Y-133300000D02*
X126150000Y-133150000D01*
X152617500Y-126690000D02*
X150700000Y-126690000D01*
X127482380Y-127282380D02*
X127482380Y-124550000D01*
%TO.N,Net-(U1-RA6{slash}OSC2{slash}CLKO)*%
X122400000Y-112750000D02*
X125750000Y-116100000D01*
X137650000Y-114000000D02*
X137650000Y-102080000D01*
X137650000Y-102080000D02*
X141760000Y-97970000D01*
X122400000Y-112750000D02*
X122400000Y-103850000D01*
X135550000Y-116100000D02*
X137650000Y-114000000D01*
X122400000Y-103850000D02*
X123450000Y-102800000D01*
X125750000Y-116100000D02*
X135550000Y-116100000D01*
%TO.N,Net-(U1-VUSB)*%
X139750000Y-110140000D02*
X141760000Y-108130000D01*
X135650000Y-124550000D02*
X139750000Y-120450000D01*
X139750000Y-120450000D02*
X139750000Y-110140000D01*
X129982380Y-124550000D02*
X135650000Y-124550000D01*
%TO.N,Net-(D1-K)*%
X144680000Y-50090000D02*
X148520000Y-50090000D01*
D28*
X148520000Y-50090000D02*
X148570000Y-50040000D01*
D27*
%TO.N,VCC*%
X160450000Y-50290000D02*
X160450000Y-48400000D01*
X143850000Y-47300000D02*
X142140000Y-49010000D01*
X158170000Y-85270000D02*
X157000000Y-85270000D01*
X160450000Y-51500000D02*
X153850000Y-58100000D01*
X150700000Y-119800000D02*
X152450000Y-118050000D01*
X150700000Y-124690000D02*
X150700000Y-119800000D01*
X160450000Y-50290000D02*
X160450000Y-51500000D01*
D28*
X142140000Y-57880000D02*
X142080000Y-57940000D01*
D27*
X160450000Y-48400000D02*
X159350000Y-47300000D01*
X159350000Y-47300000D02*
X143850000Y-47300000D01*
X142140000Y-50090000D02*
X142140000Y-57880000D01*
X157000000Y-85270000D02*
X146840000Y-85270000D01*
X161150000Y-116350000D02*
X161150000Y-88250000D01*
X153850000Y-82120000D02*
X157000000Y-85270000D01*
X159450000Y-118050000D02*
X161150000Y-116350000D01*
X146840000Y-85270000D02*
X141760000Y-90350000D01*
X161150000Y-88250000D02*
X158170000Y-85270000D01*
X153850000Y-58100000D02*
X153850000Y-82120000D01*
X152450000Y-118050000D02*
X159450000Y-118050000D01*
X142140000Y-49010000D02*
X142140000Y-50090000D01*
D28*
%TO.N,Net-(D2-K)*%
X149060000Y-57940000D02*
X149100000Y-57900000D01*
D27*
X144620000Y-57940000D02*
X149060000Y-57940000D01*
%TO.N,Net-(J1-D-)*%
X148200000Y-124690000D02*
X148200000Y-116930000D01*
X148200000Y-116930000D02*
X157000000Y-108130000D01*
%TO.N,Net-(J1-D+)*%
X148200000Y-126690000D02*
X145840000Y-126690000D01*
X145840000Y-126690000D02*
X144900000Y-125750000D01*
X144900000Y-125750000D02*
X144900000Y-117690000D01*
X144900000Y-117690000D02*
X157000000Y-105590000D01*
%TO.N,pin4*%
X141760000Y-72570000D02*
X138470000Y-72570000D01*
X128450000Y-70290000D02*
X123800000Y-70290000D01*
X138470000Y-72570000D02*
X136190000Y-70290000D01*
X136190000Y-70290000D02*
X133100000Y-70290000D01*
X133100000Y-70290000D02*
X128450000Y-70290000D01*
%TO.N,pin3*%
X141760000Y-70030000D02*
X138580000Y-70030000D01*
X133100000Y-67750000D02*
X128450000Y-67750000D01*
X128450000Y-67750000D02*
X123800000Y-67750000D01*
X138580000Y-70030000D02*
X136300000Y-67750000D01*
X136300000Y-67750000D02*
X133100000Y-67750000D01*
%TO.N,pin2*%
X141300000Y-67490000D02*
X141760000Y-67490000D01*
X133100000Y-65210000D02*
X128450000Y-65210000D01*
X128450000Y-65210000D02*
X123800000Y-65210000D01*
X139020000Y-65210000D02*
X141300000Y-67490000D01*
X133100000Y-65210000D02*
X139020000Y-65210000D01*
%TO.N,pin5*%
X136630000Y-72830000D02*
X133100000Y-72830000D01*
X133100000Y-72830000D02*
X128450000Y-72830000D01*
X141760000Y-75110000D02*
X138910000Y-75110000D01*
X138910000Y-75110000D02*
X136630000Y-72830000D01*
X128450000Y-72830000D02*
X123800000Y-72830000D01*
%TO.N,pin37*%
X165800000Y-72770000D02*
X170150000Y-72770000D01*
D28*
X157000000Y-72350000D02*
X157000000Y-72570000D01*
D27*
X170150000Y-72770000D02*
X174900000Y-72770000D01*
D28*
X158050000Y-71520000D02*
X158050000Y-71500000D01*
D27*
X164530000Y-71500000D02*
X165800000Y-72770000D01*
X157000000Y-72570000D02*
X158050000Y-71520000D01*
X158050000Y-71500000D02*
X164530000Y-71500000D01*
%TO.N,pin33*%
X170150000Y-82930000D02*
X174900000Y-82930000D01*
X165800000Y-82930000D02*
X170150000Y-82930000D01*
X157000000Y-82730000D02*
X158380000Y-81350000D01*
X164220000Y-81350000D02*
X165800000Y-82930000D01*
X158380000Y-81350000D02*
X164220000Y-81350000D01*
%TO.N,pin35*%
X170150000Y-77850000D02*
X174900000Y-77850000D01*
X158400000Y-76250000D02*
X164200000Y-76250000D01*
X165800000Y-77850000D02*
X170150000Y-77850000D01*
X164200000Y-76250000D02*
X165800000Y-77850000D01*
X157000000Y-77650000D02*
X158400000Y-76250000D01*
D28*
X157200000Y-77850000D02*
X157000000Y-77650000D01*
D27*
%TO.N,pin34*%
X170150000Y-80390000D02*
X174900000Y-80390000D01*
X157000000Y-80190000D02*
X158190000Y-79000000D01*
X158190000Y-79000000D02*
X164410000Y-79000000D01*
X165800000Y-80390000D02*
X170150000Y-80390000D01*
D28*
X157200000Y-80390000D02*
X157000000Y-80190000D01*
D27*
X164410000Y-79000000D02*
X165800000Y-80390000D01*
%TO.N,pin38*%
X164720000Y-69150000D02*
X165800000Y-70230000D01*
X170150000Y-70230000D02*
X174900000Y-70230000D01*
X157000000Y-70030000D02*
X157880000Y-69150000D01*
X157880000Y-69150000D02*
X164720000Y-69150000D01*
X165800000Y-70230000D02*
X170150000Y-70230000D01*
%TO.N,pin7*%
X135220000Y-75370000D02*
X133100000Y-75370000D01*
X140040000Y-80190000D02*
X135220000Y-75370000D01*
X128450000Y-75370000D02*
X123800000Y-75370000D01*
X141760000Y-80190000D02*
X140040000Y-80190000D01*
X133100000Y-75370000D02*
X128450000Y-75370000D01*
%TO.N,pin36*%
X157000000Y-75110000D02*
X157960000Y-74150000D01*
X164640000Y-74150000D02*
X165800000Y-75310000D01*
X157960000Y-74150000D02*
X164640000Y-74150000D01*
X170150000Y-75310000D02*
X174900000Y-75310000D01*
X165800000Y-75310000D02*
X170150000Y-75310000D01*
%TO.N,pin39*%
X157000000Y-67450000D02*
X157700000Y-66750000D01*
D28*
X157000000Y-67490000D02*
X157000000Y-67450000D01*
D27*
X170150000Y-67690000D02*
X174900000Y-67690000D01*
X157700000Y-66750000D02*
X164860000Y-66750000D01*
X164860000Y-66750000D02*
X165800000Y-67690000D01*
X165800000Y-67690000D02*
X170150000Y-67690000D01*
%TO.N,pin10*%
X128450000Y-82990000D02*
X123800000Y-82990000D01*
X141760000Y-87810000D02*
X139560000Y-87810000D01*
X133100000Y-82990000D02*
X128450000Y-82990000D01*
X134740000Y-82990000D02*
X133100000Y-82990000D01*
X139560000Y-87810000D02*
X134740000Y-82990000D01*
%TO.N,pin8*%
X128450000Y-77910000D02*
X123800000Y-77910000D01*
X133100000Y-77910000D02*
X128450000Y-77910000D01*
X141760000Y-82730000D02*
X139580000Y-82730000D01*
X139580000Y-82730000D02*
X134760000Y-77910000D01*
X134760000Y-77910000D02*
X133100000Y-77910000D01*
%TO.N,pin9*%
X133100000Y-80450000D02*
X128450000Y-80450000D01*
X128450000Y-80450000D02*
X123800000Y-80450000D01*
X141760000Y-85270000D02*
X139670000Y-85270000D01*
X139670000Y-85270000D02*
X134850000Y-80450000D01*
X134850000Y-80450000D02*
X133100000Y-80450000D01*
%TO.N,Net-(U1-RA4{slash}T0CKI{slash}C1OUT{slash}RCV)*%
X156190000Y-50040000D02*
X151350000Y-54880000D01*
D28*
X156340000Y-49890000D02*
X156190000Y-50040000D01*
D27*
X151350000Y-72000000D02*
X145700000Y-77650000D01*
X151350000Y-54880000D02*
X151350000Y-72000000D01*
X145700000Y-77650000D02*
X141760000Y-77650000D01*
%TO.N,pin40*%
X165800000Y-65150000D02*
X170150000Y-65150000D01*
X170150000Y-65150000D02*
X174900000Y-65150000D01*
X157000000Y-64950000D02*
X158150000Y-63800000D01*
X158150000Y-63800000D02*
X164450000Y-63800000D01*
X164450000Y-63800000D02*
X165800000Y-65150000D01*
%TD*%
M02*
