M48
; DRILL file {KiCad 8.0.8} date 2025-04-11T19:44:10-0600
; FORMAT={-:-/ absolute / inch / decimal}
; #@! TF.CreationDate,2025-04-11T19:44:10-06:00
; #@! TF.GenerationSoftware,Kicad,Pcbnew,8.0.8
; #@! TF.FileFunction,Plated,1,2,PTH
FMAT,2
INCH
; #@! TA.AperFunction,Plated,PTH,ComponentDrill
T1C0.0315
; #@! TA.AperFunction,Plated,PTH,ComponentDrill
T2C0.0354
; #@! TA.AperFunction,Plated,PTH,ComponentDrill
T3C0.0374
; #@! TA.AperFunction,Plated,PTH,ComponentDrill
T4C0.0394
; #@! TA.AperFunction,Plated,PTH,ComponentDrill
T5C0.0512
; #@! TA.AperFunction,Plated,PTH,ComponentDrill
T6C0.0520
; #@! TA.AperFunction,Plated,PTH,ComponentDrill
T7C0.0669
; #@! TA.AperFunction,Plated,PTH,ComponentDrill
T8C0.0906
%
G90
G05
T1
X4.8602Y-4.0472
X4.9587Y-4.0472
X5.019Y-4.9035
X5.1174Y-4.9035
X5.1339Y-4.0492
X5.2323Y-4.0492
X5.5811Y-2.5571
X5.5811Y-2.6571
X5.5811Y-2.7571
X5.5811Y-2.8571
X5.5811Y-2.9571
X5.5811Y-3.0571
X5.5811Y-3.1571
X5.5811Y-3.2571
X5.5811Y-3.3571
X5.5811Y-3.4571
X5.5811Y-3.5571
X5.5811Y-3.6571
X5.5811Y-3.7571
X5.5811Y-3.8571
X5.5811Y-3.9571
X5.5811Y-4.0571
X5.5811Y-4.1571
X5.5811Y-4.2571
X5.5811Y-4.3571
X5.5811Y-4.4571
X5.8492Y-1.9701
X5.8701Y-2.2795
X6.1492Y-1.9701
X6.1701Y-2.2795
X6.1811Y-2.5571
X6.1811Y-2.6571
X6.1811Y-2.7571
X6.1811Y-2.8571
X6.1811Y-2.9571
X6.1811Y-3.0571
X6.1811Y-3.1571
X6.1811Y-3.2571
X6.1811Y-3.3571
X6.1811Y-3.4571
X6.1811Y-3.5571
X6.1811Y-3.6571
X6.1811Y-3.7571
X6.1811Y-3.8571
X6.1811Y-3.9571
X6.1811Y-4.0571
X6.1811Y-4.1571
X6.1811Y-4.2571
X6.1811Y-4.3571
X6.1811Y-4.4571
X6.3169Y-1.9799
X6.3169Y-2.2799
T2
X5.5937Y-2.2811
X5.5961Y-1.972
X5.6937Y-2.2811
X5.6961Y-1.972
T3
X5.8346Y-4.9091
X5.8346Y-4.9878
X5.9331Y-4.9091
X5.9331Y-4.9878
T4
X4.3031Y-2.561
X4.3031Y-2.661
X4.3031Y-2.761
X4.3031Y-2.861
X4.3031Y-2.961
X4.3031Y-3.061
X4.3031Y-3.161
X4.3031Y-3.261
X4.3031Y-3.361
X4.3031Y-3.461
X4.3031Y-3.561
X4.3031Y-3.661
X4.3031Y-3.761
X4.4862Y-2.561
X4.4862Y-2.661
X4.4862Y-2.761
X4.4862Y-2.861
X4.4862Y-2.961
X4.4862Y-3.061
X4.4862Y-3.161
X4.4862Y-3.261
X4.4862Y-3.361
X4.4862Y-3.461
X4.4862Y-3.561
X4.4862Y-3.661
X4.4862Y-3.761
X4.874Y-2.5673
X4.874Y-2.6673
X4.874Y-2.7673
X4.874Y-2.8673
X4.874Y-2.9673
X4.874Y-3.0673
X4.874Y-3.1673
X4.874Y-3.2673
X4.874Y-3.3673
X4.874Y-3.4673
X4.874Y-3.5673
X4.874Y-3.6673
X4.874Y-3.7673
X5.0571Y-2.5673
X5.0571Y-2.6673
X5.0571Y-2.7673
X5.0571Y-2.8673
X5.0571Y-2.9673
X5.0571Y-3.0673
X5.0571Y-3.1673
X5.0571Y-3.2673
X5.0571Y-3.3673
X5.0571Y-3.4673
X5.0571Y-3.5673
X5.0571Y-3.6673
X5.0571Y-3.7673
X5.2402Y-2.5673
X5.2402Y-2.6673
X5.2402Y-2.7673
X5.2402Y-2.8673
X5.2402Y-2.9673
X5.2402Y-3.0673
X5.2402Y-3.1673
X5.2402Y-3.2673
X5.2402Y-3.3673
X5.2402Y-3.4673
X5.2402Y-3.5673
X5.2402Y-3.6673
X5.2402Y-3.7673
X6.5276Y-2.565
X6.5276Y-2.665
X6.5276Y-2.765
X6.5276Y-2.865
X6.5276Y-2.965
X6.5276Y-3.065
X6.5276Y-3.165
X6.5276Y-3.265
X6.5276Y-3.365
X6.5276Y-3.465
X6.5276Y-3.565
X6.5276Y-3.665
X6.5276Y-3.765
X6.5276Y-3.865
X6.5276Y-3.965
X6.5276Y-4.065
X6.6988Y-2.565
X6.6988Y-2.665
X6.6988Y-2.765
X6.6988Y-2.865
X6.6988Y-2.965
X6.6988Y-3.065
X6.6988Y-3.165
X6.6988Y-3.265
X6.6988Y-3.365
X6.6988Y-3.465
X6.6988Y-3.565
X6.6988Y-3.665
X6.6988Y-3.765
X6.6988Y-3.865
X6.6988Y-3.965
X6.6988Y-4.065
X6.8858Y-2.565
X6.8858Y-2.665
X6.8858Y-2.765
X6.8858Y-2.865
X6.8858Y-2.965
X6.8858Y-3.065
X6.8858Y-3.165
X6.8858Y-3.265
X6.8858Y-3.365
X6.8858Y-3.465
X6.8858Y-3.565
X6.8858Y-3.665
X6.8858Y-3.765
X6.8858Y-3.865
X6.8858Y-3.965
X6.8858Y-4.065
X7.2441Y-2.5638
X7.2441Y-2.6638
X7.2441Y-2.7638
X7.2441Y-2.8638
X7.2441Y-2.9638
X7.2441Y-3.0638
X7.2441Y-3.1638
X7.2441Y-3.2638
X7.2441Y-3.3638
X7.2441Y-3.4638
X7.2441Y-3.5638
X7.2441Y-3.6638
X7.2441Y-3.7638
X7.2441Y-3.8638
X7.2441Y-3.9638
X7.2441Y-4.0638
X7.4272Y-2.5638
X7.4272Y-2.6638
X7.4272Y-2.7638
X7.4272Y-2.8638
X7.4272Y-2.9638
X7.4272Y-3.0638
X7.4272Y-3.1638
X7.4272Y-3.2638
X7.4272Y-3.3638
X7.4272Y-3.4638
X7.4272Y-3.5638
X7.4272Y-3.6638
X7.4272Y-3.7638
X7.4272Y-3.8638
X7.4272Y-3.9638
X7.4272Y-4.0638
T5
X5.4193Y-2.002
X5.4193Y-2.2579
T6
X6.7382Y-5.3031
X6.935Y-5.3031
T7
X4.8189Y-4.439
X5.3047Y-4.439
T8
X5.6476Y-5.1004
X6.1201Y-5.1004
M30
