%TF.GenerationSoftware,KiCad,Pcbnew,8.0.8*%
%TF.CreationDate,2025-04-11T19:44:07-06:00*%
%TF.ProjectId,Coquirana1,436f7175-6972-4616-9e61-312e6b696361,rev?*%
%TF.SameCoordinates,Original*%
%TF.FileFunction,Soldermask,Bot*%
%TF.FilePolarity,Negative*%
%FSLAX46Y46*%
G04 Gerber Fmt 4.6, Leading zero omitted, Abs format (unit mm)*
G04 Created by KiCad (PCBNEW 8.0.8) date 2025-04-11 19:44:07*
%MOMM*%
%LPD*%
G01*
G04 APERTURE LIST*
%ADD10R,1.600000X1.600000*%
%ADD11C,1.600000*%
%ADD12C,4.000000*%
%ADD13O,1.600000X1.600000*%
%ADD14R,1.700000X1.700000*%
%ADD15O,1.700000X1.700000*%
%ADD16R,2.250000X2.250000*%
%ADD17C,2.250000*%
%ADD18R,1.800000X1.800000*%
%ADD19C,1.800000*%
%ADD20R,1.980000X3.960000*%
%ADD21O,1.980000X3.960000*%
%ADD22C,2.700000*%
G04 APERTURE END LIST*
D10*
%TO.C,J1*%
X150700000Y-124690000D03*
D11*
X148200000Y-124690000D03*
X148200000Y-126690000D03*
X150700000Y-126690000D03*
D12*
X155450000Y-129550000D03*
X143450000Y-129550000D03*
%TD*%
D11*
%TO.C,R1*%
X160450000Y-57910000D03*
D13*
X160450000Y-50290000D03*
%TD*%
D14*
%TO.C,J3*%
X123800000Y-65210000D03*
D15*
X123800000Y-67750000D03*
X123800000Y-70290000D03*
X123800000Y-72830000D03*
X123800000Y-75370000D03*
X123800000Y-77910000D03*
X123800000Y-80450000D03*
X123800000Y-82990000D03*
X123800000Y-85530000D03*
X123800000Y-88070000D03*
X123800000Y-90610000D03*
X123800000Y-93150000D03*
X123800000Y-95690000D03*
%TD*%
D14*
%TO.C,J9*%
X109300000Y-65050000D03*
D15*
X109300000Y-67590000D03*
X109300000Y-70130000D03*
X109300000Y-72670000D03*
X109300000Y-75210000D03*
X109300000Y-77750000D03*
X109300000Y-80290000D03*
X109300000Y-82830000D03*
X109300000Y-85370000D03*
X109300000Y-87910000D03*
X109300000Y-90450000D03*
X109300000Y-92990000D03*
X109300000Y-95530000D03*
%TD*%
D11*
%TO.C,C1*%
X130400000Y-102850000D03*
X132900000Y-102850000D03*
%TD*%
D16*
%TO.C,SW1*%
X137650000Y-57350000D03*
D17*
X137650000Y-50850000D03*
%TD*%
D14*
%TO.C,J11*%
X184000000Y-65120000D03*
D15*
X184000000Y-67660000D03*
X184000000Y-70200000D03*
X184000000Y-72740000D03*
X184000000Y-75280000D03*
X184000000Y-77820000D03*
X184000000Y-80360000D03*
X184000000Y-82900000D03*
X184000000Y-85440000D03*
X184000000Y-87980000D03*
X184000000Y-90520000D03*
X184000000Y-93060000D03*
X184000000Y-95600000D03*
X184000000Y-98140000D03*
X184000000Y-100680000D03*
X184000000Y-103220000D03*
%TD*%
D10*
%TO.C,C3*%
X129982380Y-124550000D03*
D11*
X127482380Y-124550000D03*
%TD*%
D10*
%TO.C,U1*%
X141760000Y-64950000D03*
D13*
X141760000Y-67490000D03*
X141760000Y-70030000D03*
X141760000Y-72570000D03*
X141760000Y-75110000D03*
X141760000Y-77650000D03*
X141760000Y-80190000D03*
X141760000Y-82730000D03*
X141760000Y-85270000D03*
X141760000Y-87810000D03*
X141760000Y-90350000D03*
X141760000Y-92890000D03*
X141760000Y-95430000D03*
X141760000Y-97970000D03*
X141760000Y-100510000D03*
X141760000Y-103050000D03*
X141760000Y-105590000D03*
X141760000Y-108130000D03*
X141760000Y-110670000D03*
X141760000Y-113210000D03*
X157000000Y-113210000D03*
X157000000Y-110670000D03*
X157000000Y-108130000D03*
X157000000Y-105590000D03*
X157000000Y-103050000D03*
X157000000Y-100510000D03*
X157000000Y-97970000D03*
X157000000Y-95430000D03*
X157000000Y-92890000D03*
X157000000Y-90350000D03*
X157000000Y-87810000D03*
X157000000Y-85270000D03*
X157000000Y-82730000D03*
X157000000Y-80190000D03*
X157000000Y-77650000D03*
X157000000Y-75110000D03*
X157000000Y-72570000D03*
X157000000Y-70030000D03*
X157000000Y-67490000D03*
X157000000Y-64950000D03*
%TD*%
D18*
%TO.C,D2*%
X144620000Y-57940000D03*
D19*
X142080000Y-57940000D03*
%TD*%
D14*
%TO.C,J4*%
X128450000Y-65210000D03*
D15*
X128450000Y-67750000D03*
X128450000Y-70290000D03*
X128450000Y-72830000D03*
X128450000Y-75370000D03*
X128450000Y-77910000D03*
X128450000Y-80450000D03*
X128450000Y-82990000D03*
X128450000Y-85530000D03*
X128450000Y-88070000D03*
X128450000Y-90610000D03*
X128450000Y-93150000D03*
X128450000Y-95690000D03*
%TD*%
D20*
%TO.C,J2*%
X171150000Y-134700000D03*
D21*
X176150000Y-134700000D03*
%TD*%
D14*
%TO.C,J6*%
X165800000Y-65150000D03*
D15*
X165800000Y-67690000D03*
X165800000Y-70230000D03*
X165800000Y-72770000D03*
X165800000Y-75310000D03*
X165800000Y-77850000D03*
X165800000Y-80390000D03*
X165800000Y-82930000D03*
X165800000Y-85470000D03*
X165800000Y-88010000D03*
X165800000Y-90550000D03*
X165800000Y-93090000D03*
X165800000Y-95630000D03*
X165800000Y-98170000D03*
X165800000Y-100710000D03*
X165800000Y-103250000D03*
%TD*%
D18*
%TO.C,D1*%
X144680000Y-50090000D03*
D19*
X142140000Y-50090000D03*
%TD*%
D11*
%TO.C,R2*%
X156190000Y-50040000D03*
D13*
X148570000Y-50040000D03*
%TD*%
D11*
%TO.C,C2*%
X123450000Y-102800000D03*
X125950000Y-102800000D03*
%TD*%
D14*
%TO.C,J10*%
X113950000Y-65050000D03*
D15*
X113950000Y-67590000D03*
X113950000Y-70130000D03*
X113950000Y-72670000D03*
X113950000Y-75210000D03*
X113950000Y-77750000D03*
X113950000Y-80290000D03*
X113950000Y-82830000D03*
X113950000Y-85370000D03*
X113950000Y-87910000D03*
X113950000Y-90450000D03*
X113950000Y-92990000D03*
X113950000Y-95530000D03*
%TD*%
D11*
%TO.C,R3*%
X149100000Y-57900000D03*
D13*
X156720000Y-57900000D03*
%TD*%
D22*
%TO.C,Y1*%
X122400000Y-112750000D03*
X134740000Y-112750000D03*
%TD*%
D14*
%TO.C,J8*%
X174900000Y-65150000D03*
D15*
X174900000Y-67690000D03*
X174900000Y-70230000D03*
X174900000Y-72770000D03*
X174900000Y-75310000D03*
X174900000Y-77850000D03*
X174900000Y-80390000D03*
X174900000Y-82930000D03*
X174900000Y-85470000D03*
X174900000Y-88010000D03*
X174900000Y-90550000D03*
X174900000Y-93090000D03*
X174900000Y-95630000D03*
X174900000Y-98170000D03*
X174900000Y-100710000D03*
X174900000Y-103250000D03*
%TD*%
D14*
%TO.C,J5*%
X133100000Y-65210000D03*
D15*
X133100000Y-67750000D03*
X133100000Y-70290000D03*
X133100000Y-72830000D03*
X133100000Y-75370000D03*
X133100000Y-77910000D03*
X133100000Y-80450000D03*
X133100000Y-82990000D03*
X133100000Y-85530000D03*
X133100000Y-88070000D03*
X133100000Y-90610000D03*
X133100000Y-93150000D03*
X133100000Y-95690000D03*
%TD*%
D14*
%TO.C,J7*%
X170150000Y-65150000D03*
D15*
X170150000Y-67690000D03*
X170150000Y-70230000D03*
X170150000Y-72770000D03*
X170150000Y-75310000D03*
X170150000Y-77850000D03*
X170150000Y-80390000D03*
X170150000Y-82930000D03*
X170150000Y-85470000D03*
X170150000Y-88010000D03*
X170150000Y-90550000D03*
X170150000Y-93090000D03*
X170150000Y-95630000D03*
X170150000Y-98170000D03*
X170150000Y-100710000D03*
X170150000Y-103250000D03*
%TD*%
D14*
%TO.C,J12*%
X188650000Y-65120000D03*
D15*
X188650000Y-67660000D03*
X188650000Y-70200000D03*
X188650000Y-72740000D03*
X188650000Y-75280000D03*
X188650000Y-77820000D03*
X188650000Y-80360000D03*
X188650000Y-82900000D03*
X188650000Y-85440000D03*
X188650000Y-87980000D03*
X188650000Y-90520000D03*
X188650000Y-93060000D03*
X188650000Y-95600000D03*
X188650000Y-98140000D03*
X188650000Y-100680000D03*
X188650000Y-103220000D03*
%TD*%
M02*
