%TF.GenerationSoftware,KiCad,Pcbnew,8.0.8*%
%TF.CreationDate,2025-04-18T17:50:53-06:00*%
%TF.ProjectId,Coquirana1,436f7175-6972-4616-9e61-312e6b696361,rev?*%
%TF.SameCoordinates,Original*%
%TF.FileFunction,Soldermask,Top*%
%TF.FilePolarity,Negative*%
%FSLAX46Y46*%
G04 Gerber Fmt 4.6, Leading zero omitted, Abs format (unit mm)*
G04 Created by KiCad (PCBNEW 8.0.8) date 2025-04-18 17:50:53*
%MOMM*%
%LPD*%
G01*
G04 APERTURE LIST*
G04 Aperture macros list*
%AMRoundRect*
0 Rectangle with rounded corners*
0 $1 Rounding radius*
0 $2 $3 $4 $5 $6 $7 $8 $9 X,Y pos of 4 corners*
0 Add a 4 corners polygon primitive as box body*
4,1,4,$2,$3,$4,$5,$6,$7,$8,$9,$2,$3,0*
0 Add four circle primitives for the rounded corners*
1,1,$1+$1,$2,$3*
1,1,$1+$1,$4,$5*
1,1,$1+$1,$6,$7*
1,1,$1+$1,$8,$9*
0 Add four rect primitives between the rounded corners*
20,1,$1+$1,$2,$3,$4,$5,0*
20,1,$1+$1,$4,$5,$6,$7,0*
20,1,$1+$1,$6,$7,$8,$9,0*
20,1,$1+$1,$8,$9,$2,$3,0*%
G04 Aperture macros list end*
%ADD10C,1.600000*%
%ADD11O,1.600000X1.600000*%
%ADD12R,1.700000X1.700000*%
%ADD13O,1.700000X1.700000*%
%ADD14R,1.600000X1.600000*%
%ADD15R,1.800000X1.800000*%
%ADD16C,1.800000*%
%ADD17C,4.000000*%
%ADD18RoundRect,0.102000X-0.749000X-0.749000X0.749000X-0.749000X0.749000X0.749000X-0.749000X0.749000X0*%
%ADD19C,1.702000*%
%ADD20R,1.980000X3.960000*%
%ADD21O,1.980000X3.960000*%
%ADD22RoundRect,0.102000X0.749000X0.749000X-0.749000X0.749000X-0.749000X-0.749000X0.749000X-0.749000X0*%
%ADD23C,2.700000*%
G04 APERTURE END LIST*
D10*
%TO.C,R5.1k*%
X148480000Y-45650000D03*
D11*
X156100000Y-45650000D03*
%TD*%
D12*
%TO.C,J3*%
X123800000Y-65210000D03*
D13*
X123800000Y-67750000D03*
X123800000Y-70290000D03*
X123800000Y-72830000D03*
X123800000Y-75370000D03*
X123800000Y-77910000D03*
X123800000Y-80450000D03*
X123800000Y-82990000D03*
X123800000Y-85530000D03*
X123800000Y-88070000D03*
X123800000Y-90610000D03*
X123800000Y-93150000D03*
X123800000Y-95690000D03*
%TD*%
D12*
%TO.C,VCC*%
X109300000Y-65050000D03*
D13*
X109300000Y-67590000D03*
X109300000Y-70130000D03*
X109300000Y-72670000D03*
X109300000Y-75210000D03*
X109300000Y-77750000D03*
X109300000Y-80290000D03*
X109300000Y-82830000D03*
X109300000Y-85370000D03*
X109300000Y-87910000D03*
X109300000Y-90450000D03*
X109300000Y-92990000D03*
X109300000Y-95530000D03*
%TD*%
D10*
%TO.C,15pF*%
X130400000Y-102850000D03*
X132900000Y-102850000D03*
%TD*%
D12*
%TO.C,VCC*%
X184000000Y-65120000D03*
D13*
X184000000Y-67660000D03*
X184000000Y-70200000D03*
X184000000Y-72740000D03*
X184000000Y-75280000D03*
X184000000Y-77820000D03*
X184000000Y-80360000D03*
X184000000Y-82900000D03*
X184000000Y-85440000D03*
X184000000Y-87980000D03*
X184000000Y-90520000D03*
X184000000Y-93060000D03*
X184000000Y-95600000D03*
X184000000Y-98140000D03*
X184000000Y-100680000D03*
X184000000Y-103220000D03*
%TD*%
D14*
%TO.C,C220nF*%
X129982380Y-124550000D03*
D10*
X127482380Y-124550000D03*
%TD*%
D11*
%TO.C,PIC18F4550*%
X157000000Y-64950000D03*
X157000000Y-67490000D03*
X157000000Y-70030000D03*
X157000000Y-72570000D03*
X157000000Y-75110000D03*
X157000000Y-77650000D03*
X157000000Y-80190000D03*
X157000000Y-82730000D03*
X157000000Y-85270000D03*
X157000000Y-87810000D03*
X157000000Y-90350000D03*
X157000000Y-92890000D03*
X157000000Y-95430000D03*
X157000000Y-97970000D03*
X157000000Y-100510000D03*
X157000000Y-103050000D03*
X157000000Y-105590000D03*
X157000000Y-108130000D03*
X157000000Y-110670000D03*
X157000000Y-113210000D03*
X141760000Y-113210000D03*
X141760000Y-110670000D03*
X141760000Y-108130000D03*
X141760000Y-105590000D03*
X141760000Y-103050000D03*
X141760000Y-100510000D03*
X141760000Y-97970000D03*
X141760000Y-95430000D03*
X141760000Y-92890000D03*
X141760000Y-90350000D03*
X141760000Y-87810000D03*
X141760000Y-85270000D03*
X141760000Y-82730000D03*
X141760000Y-80190000D03*
X141760000Y-77650000D03*
X141760000Y-75110000D03*
X141760000Y-72570000D03*
X141760000Y-70030000D03*
X141760000Y-67490000D03*
D14*
X141760000Y-64950000D03*
%TD*%
D15*
%TO.C,LEDR*%
X161670000Y-45700000D03*
D16*
X159130000Y-45700000D03*
%TD*%
D12*
%TO.C,J4*%
X128450000Y-65210000D03*
D13*
X128450000Y-67750000D03*
X128450000Y-70290000D03*
X128450000Y-72830000D03*
X128450000Y-75370000D03*
X128450000Y-77910000D03*
X128450000Y-80450000D03*
X128450000Y-82990000D03*
X128450000Y-85530000D03*
X128450000Y-88070000D03*
X128450000Y-90610000D03*
X128450000Y-93150000D03*
X128450000Y-95690000D03*
%TD*%
D14*
%TO.C,USB*%
X150700000Y-124690000D03*
D10*
X148200000Y-124690000D03*
X148200000Y-126690000D03*
X150700000Y-126690000D03*
D17*
X155450000Y-129550000D03*
X143450000Y-129550000D03*
%TD*%
D10*
%TO.C,R5.1k*%
X151750000Y-58560000D03*
D11*
X151750000Y-50940000D03*
%TD*%
D18*
%TO.C,Boot*%
X129635000Y-53150000D03*
D19*
X136135000Y-53150000D03*
X129635000Y-57650000D03*
X136135000Y-57650000D03*
%TD*%
D20*
%TO.C,T-block*%
X171150000Y-134700000D03*
D21*
X176150000Y-134700000D03*
%TD*%
D22*
%TO.C,Reset*%
X120950000Y-57700000D03*
D19*
X114450000Y-57700000D03*
X120950000Y-53200000D03*
X114450000Y-53200000D03*
%TD*%
D12*
%TO.C,J6*%
X165800000Y-65150000D03*
D13*
X165800000Y-67690000D03*
X165800000Y-70230000D03*
X165800000Y-72770000D03*
X165800000Y-75310000D03*
X165800000Y-77850000D03*
X165800000Y-80390000D03*
X165800000Y-82930000D03*
X165800000Y-85470000D03*
X165800000Y-88010000D03*
X165800000Y-90550000D03*
X165800000Y-93090000D03*
X165800000Y-95630000D03*
X165800000Y-98170000D03*
X165800000Y-100710000D03*
X165800000Y-103250000D03*
%TD*%
D15*
%TO.C,LEDV*%
X144670000Y-45600000D03*
D16*
X142130000Y-45600000D03*
%TD*%
D10*
%TO.C,R470*%
X143100000Y-58360000D03*
D11*
X143100000Y-50740000D03*
%TD*%
D10*
%TO.C,15pF*%
X123450000Y-102800000D03*
X125950000Y-102800000D03*
%TD*%
D12*
%TO.C,GND*%
X113950000Y-65050000D03*
D13*
X113950000Y-67590000D03*
X113950000Y-70130000D03*
X113950000Y-72670000D03*
X113950000Y-75210000D03*
X113950000Y-77750000D03*
X113950000Y-80290000D03*
X113950000Y-82830000D03*
X113950000Y-85370000D03*
X113950000Y-87910000D03*
X113950000Y-90450000D03*
X113950000Y-92990000D03*
X113950000Y-95530000D03*
%TD*%
D10*
%TO.C,R470*%
X160450000Y-51240000D03*
D11*
X160450000Y-58860000D03*
%TD*%
D23*
%TO.C,20MHz*%
X122400000Y-112750000D03*
X134740000Y-112750000D03*
%TD*%
D12*
%TO.C,J8*%
X174900000Y-65150000D03*
D13*
X174900000Y-67690000D03*
X174900000Y-70230000D03*
X174900000Y-72770000D03*
X174900000Y-75310000D03*
X174900000Y-77850000D03*
X174900000Y-80390000D03*
X174900000Y-82930000D03*
X174900000Y-85470000D03*
X174900000Y-88010000D03*
X174900000Y-90550000D03*
X174900000Y-93090000D03*
X174900000Y-95630000D03*
X174900000Y-98170000D03*
X174900000Y-100710000D03*
X174900000Y-103250000D03*
%TD*%
D12*
%TO.C,J5*%
X133100000Y-65210000D03*
D13*
X133100000Y-67750000D03*
X133100000Y-70290000D03*
X133100000Y-72830000D03*
X133100000Y-75370000D03*
X133100000Y-77910000D03*
X133100000Y-80450000D03*
X133100000Y-82990000D03*
X133100000Y-85530000D03*
X133100000Y-88070000D03*
X133100000Y-90610000D03*
X133100000Y-93150000D03*
X133100000Y-95690000D03*
%TD*%
D12*
%TO.C,J7*%
X170150000Y-65150000D03*
D13*
X170150000Y-67690000D03*
X170150000Y-70230000D03*
X170150000Y-72770000D03*
X170150000Y-75310000D03*
X170150000Y-77850000D03*
X170150000Y-80390000D03*
X170150000Y-82930000D03*
X170150000Y-85470000D03*
X170150000Y-88010000D03*
X170150000Y-90550000D03*
X170150000Y-93090000D03*
X170150000Y-95630000D03*
X170150000Y-98170000D03*
X170150000Y-100710000D03*
X170150000Y-103250000D03*
%TD*%
D12*
%TO.C,GND*%
X188650000Y-65120000D03*
D13*
X188650000Y-67660000D03*
X188650000Y-70200000D03*
X188650000Y-72740000D03*
X188650000Y-75280000D03*
X188650000Y-77820000D03*
X188650000Y-80360000D03*
X188650000Y-82900000D03*
X188650000Y-85440000D03*
X188650000Y-87980000D03*
X188650000Y-90520000D03*
X188650000Y-93060000D03*
X188650000Y-95600000D03*
X188650000Y-98140000D03*
X188650000Y-100680000D03*
X188650000Y-103220000D03*
%TD*%
M02*
